<?xml version="1.0" encoding="UTF-8"?>
<svg width="136px" height="117px" viewBox="0 0 136 117" version="1.1" xmlns="http://www.w3.org/2000/svg" xmlns:xlink="http://www.w3.org/1999/xlink">
    <!-- Generator: sketchtool 47.1 (45422) - http://www.bohemiancoding.com/sketch -->
    <title>5F89D4BC-91A0-4889-8730-EEBA62FD5A41</title>
    <desc>Created with sketchtool.</desc>
    <defs>
        <path d="M4.03303744,35.7597689 L64.4163612,1.27978741 L64.4163612,1.27978741 C66.8875502,-0.131306685 69.9223121,-0.12345767 72.3861689,1.30040027 L132.002845,35.7527591 L132.002845,35.7527591 C134.47645,37.1822506 136,39.822368 136,42.6793189 L136,109 L136,109 C136,113.418278 132.418278,117 128,117 L8,117 L8,117 C3.581722,117 5.41083001e-16,113.418278 0,109 L0,42.7069415 L0,42.7069415 C-3.51686659e-16,39.835202 1.53922867,37.1837793 4.03303744,35.7597689 Z" id="path-1"></path>
        <path d="M22,23 L115,23 L115,23 C119.418278,23 123,26.581722 123,31 L123,62.0967742 L118.820216,69.0999848 L118.820216,69.0999848 C117.37664,71.518689 114.767452,73 111.950709,73 L25.1757644,73 L25.1757644,73 C22.2911676,73 19.6299468,71.4470773 18.2108333,68.9357 L14,61.483871 L14,31 L14,31 C14,26.581722 17.581722,23 22,23 Z" id="path-2"></path>
        <ellipse id="path-3" cx="68.5" cy="52" rx="16.5" ry="16"></ellipse>
    </defs>
    <g id="Payments" stroke="none" stroke-width="1" fill="none" fill-rule="evenodd">
        <g id="Payment-Updated-Confirmation" transform="translate(-121.000000, -104.000000)">
            <g id="Glyphs/Large/Payment-Success-Envelope" transform="translate(121.000000, 104.000000)">
                <g id="Rectangle-2" fill-rule="nonzero">
                    <use fill="#DBEBF9" fill-rule="evenodd" xlink:href="#path-1"></use>
                    <path stroke="#6B798E" stroke-width="3" d="M4.77684292,37.0623638 C2.75062329,38.2193722 1.5,40.3736532 1.5,42.7069415 L1.5,109 C1.5,112.589851 4.41014913,115.5 8,115.5 L128,115.5 C131.589851,115.5 134.5,112.589851 134.5,109 L134.5,42.6793189 C134.5,40.3580463 133.262116,38.2129509 131.252312,37.0514891 L71.6356355,2.59913023 C69.6337518,1.44224566 67.1680078,1.43586833 65.1601667,2.58238228 L4.77684292,37.0623638 Z"></path>
                </g>
                <path d="M2,113 L53,72" id="Path-3" stroke="#6B798E" stroke-width="3"></path>
                <path d="M84,113 L135,72" id="Path-3-Copy" stroke="#6B798E" stroke-width="3" transform="translate(109.500000, 92.500000) scale(-1, 1) translate(-109.500000, -92.500000) "></path>
                <g id="Rectangle-5" fill-rule="nonzero">
                    <use fill="#F7F9FD" fill-rule="evenodd" xlink:href="#path-2"></use>
                    <path stroke="#6B798E" stroke-width="3" d="M15.5,61.0893787 L19.5167579,68.1977563 C20.6697876,70.2382503 22.8320295,71.5 25.1757644,71.5 L111.950709,71.5 C114.239312,71.5 116.359278,70.2964348 117.532183,68.3312376 L121.5,61.6831776 L121.5,31 C121.5,27.4101491 118.589851,24.5 115,24.5 L22,24.5 C18.4101491,24.5 15.5,27.4101491 15.5,31 L15.5,61.0893787 Z"></path>
                </g>
                <g id="Oval-2" fill-rule="nonzero">
                    <use fill="#FFFFFF" fill-rule="evenodd" xlink:href="#path-3"></use>
                    <ellipse stroke="#6B798E" stroke-width="3" cx="68.5" cy="52" rx="15" ry="14.5"></ellipse>
                </g>
                <g id="ic_attach_money_24px" transform="translate(59.000000, 41.000000)">
                    <path d="M10.325,9.5375 C8.33875,9.02125 7.7,8.4875 7.7,7.65625 C7.7,6.7025 8.58375,6.0375 10.0625,6.0375 C11.62,6.0375 12.1975,6.78125 12.25,7.875 L14.18375,7.875 C14.1225,6.37 13.20375,4.9875 11.375,4.54125 L11.375,2.625 L8.75,2.625 L8.75,4.515 C7.0525,4.8825 5.6875,5.985 5.6875,7.67375 C5.6875,9.695 7.35875,10.70125 9.8,11.2875 C11.9875,11.8125 12.425,12.5825 12.425,13.39625 C12.425,14 11.99625,14.9625 10.0625,14.9625 C8.26,14.9625 7.55125,14.1575 7.455,13.125 L5.53,13.125 C5.635,15.04125 7.07,16.1175 8.75,16.47625 L8.75,18.375 L11.375,18.375 L11.375,16.49375 C13.08125,16.17 14.4375,15.18125 14.4375,13.3875 C14.4375,10.9025 12.31125,10.05375 10.325,9.5375 Z" id="Shape" fill="#5DA79A" fill-rule="nonzero"></path>
                    <polygon id="Shape" points="0 0 21 0 21 21 0 21"></polygon>
                </g>
                <path d="M3,39 L19.2883225,67.9253504 L19.2883225,67.9253504 C20.70579,70.4425369 23.3702439,72 26.2590917,72 L110.740908,72 L110.740908,72 C113.629756,72 116.29421,70.4425369 117.711678,67.9253504 L134,39" id="Path-2" stroke="#6B798E" stroke-width="3"></path>
            </g>
        </g>
    </g>
</svg>