<?xml version="1.0" encoding="UTF-8"?>
<svg width="28px" height="28px" viewBox="0 0 28 28" version="1.1" xmlns="http://www.w3.org/2000/svg" xmlns:xlink="http://www.w3.org/1999/xlink">
    <!-- Generator: sketchtool 46.2 (44496) - http://www.bohemiancoding.com/sketch -->
    <title>A12EB432-45D3-47A4-937E-C13A59874DCF</title>
    <desc>Created with sketchtool.</desc>
    <defs></defs>
    <g id="Symbols" stroke="none" stroke-width="1" fill="none" fill-rule="evenodd">
        <g id="driver-icon-marvel-Active">
            <g id="Group">
                <circle id="Oval-5" fill="#00E5AD" cx="14" cy="14" r="14"></circle>
                <path d="M20.9722663,19.2360138 C21.1134324,19.7662618 20.6969339,20.2883433 20.1486026,20.3081765 C16.1230339,20.4528427 11.8769661,20.4528427 7.85139739,20.3081765 C7.30306606,20.2883433 6.88656757,19.7662618 7.02773373,19.2360138 C7.66823139,16.8321059 10.6064707,15.1666953 14.0002917,15.1666953 C17.3935293,15.1666953 20.3317686,16.8321059 20.9722663,19.2360138 Z M13.9999417,13.9999745 C12.3893642,13.9999745 11.0832856,12.4331469 11.0832856,10.4999873 C11.0832856,8.56682763 12.3893642,7 13.9999417,7 C15.6105191,7 16.9165977,8.56682763 16.9165977,10.4999873 C16.9165977,12.4331469 15.6105191,13.9999745 13.9999417,13.9999745 Z" id="Icon" fill="#FFFFFF"></path>
            </g>
        </g>
    </g>
</svg>