<?xml version="1.0" encoding="UTF-8"?>
<svg width="28px" height="28px" viewBox="0 0 28 28" version="1.1" xmlns="http://www.w3.org/2000/svg" xmlns:xlink="http://www.w3.org/1999/xlink">
    <!-- Generator: sketchtool 46.2 (44496) - http://www.bohemiancoding.com/sketch -->
    <title>ABB30F3D-B3D5-4041-B0E2-CDEC4ED95BF7</title>
    <desc>Created with sketchtool.</desc>
    <defs></defs>
    <g id="Symbols" stroke="none" stroke-width="1" fill="none" fill-rule="evenodd">
        <g id="driver-icon-marvel-Terminated">
            <g id="Group">
                <circle id="Oval-5" fill="#FF8182" cx="14" cy="14" r="14"></circle>
                <path d="M20.9757279,19.2390452 C21.116929,19.7694246 20.7003273,20.2916354 20.1518601,20.3114736 C16.1252941,20.4561756 11.8781743,20.4561756 7.85160833,20.3114736 C7.30314114,20.2916354 6.88653947,19.7694246 7.0277406,19.2390452 C7.66839695,16.8345417 10.6073642,15.1687185 14.002026,15.1687185 C17.3961043,15.1687185 20.3350715,16.8345417 20.9757279,19.2390452 Z M14.0016759,14.0017087 C12.3906994,14.0017087 11.0842972,12.4344929 11.0842972,10.5008544 C11.0842972,8.5672158 12.3906994,7 14.0016759,7 C15.6126524,7 16.9190545,8.5672158 16.9190545,10.5008544 C16.9190545,12.4344929 15.6126524,14.0017087 14.0016759,14.0017087 Z" id="Icon" fill="#FFFFFF"></path>
            </g>
        </g>
    </g>
</svg>