<svg id="Layer_1" data-name="Layer 1" xmlns="http://www.w3.org/2000/svg" viewBox="0 0 373.8 314.2"><defs><style>.cls-1,.cls-3{fill:#e51937;}.cls-1{stroke:#cd2d3f;stroke-miterlimit:10;}.cls-2{fill:#fff;}</style></defs><title>WEX LOGO WEB</title><path class="cls-1" d="M560.94,282.12a48.26,48.26,0,0,0-4.35-14.26L497.13,142.65a46.56,46.56,0,0,0-8.3-12.13,32.18,32.18,0,0,0-10.73-7,37,37,0,0,0-26.53,0c-0.42.17-1.35,0.6-1.44,0.65L210.26,237.93a48.26,48.26,0,0,0-12.41,8.26,32.17,32.17,0,0,0-7,10.71,34.85,34.85,0,0,0-2.51,14,30,30,0,0,0,2.52,12.47h0c0.15,0.32.39,1.13,0.39,1.13l60.7,127.74a48.27,48.27,0,0,0,8.27,12.4,32.16,32.16,0,0,0,10.71,7,34.86,34.86,0,0,0,14,2.51,30,30,0,0,0,12.47-2.53h0l245-116.12,0-.07,0.35-.15a30,30,0,0,0,9.86-8,34.84,34.84,0,0,0,7-12.44A32.17,32.17,0,0,0,560.94,282.12Z" transform="translate(-187.78 -120.52)"/><path class="cls-2" d="M225.61,301.33a34.38,34.38,0,0,0,2.3,5.78,37.82,37.82,0,0,0,3.42,5.43,34.07,34.07,0,0,0,12.13,9.66,37.48,37.48,0,0,0,13.38,3.33s16.27-20.76,16.27-20.78,0.81,1.82,1,2.12c5.63,11.22,15.77,18.1,27.81,18.88,0.46,0,.93,0,1.39,0h0a30.74,30.74,0,0,0,12.66-3.11,35.73,35.73,0,0,0,11.91-8.45A33,33,0,0,0,334.7,303a49.4,49.4,0,0,0,2.24-15.11V229.09H316.61v58.36c0,4.91-.52,8.33-1.58,10.47a12.13,12.13,0,0,1-11.41,7A11.94,11.94,0,0,1,293,299.07a12.29,12.29,0,0,1-2-5.25,40.84,40.84,0,0,1-.46-6.89V229.09H270.21v57.7c0,4.79-.47,8.24-1.44,10.53a12.72,12.72,0,0,1-4.86,5.56,12.12,12.12,0,0,1-6.84,2c-4.64,0-12.47-2-12.85-15.24,0,0-.07-4.07-0.07-5.07v-55.5H228.81l-5.06,2.38V287a53.65,53.65,0,0,0,.47,7.77A37.69,37.69,0,0,0,225.61,301.33Z" transform="translate(-187.78 -120.52)"/><path class="cls-2" d="M425.93,288.73a18.92,18.92,0,0,0-9.81,5.25,30.45,30.45,0,0,1-5.1,5.45l-0.21.26,0-.12A29.94,29.94,0,0,1,371,298l-16.11,7.28,10.69-13.87a34.2,34.2,0,0,1-3.93-15.1c0.06-16.63,14.39-30.52,30.11-29.87,5.74,0.23,9.14.84,13.72,3.3l-31.75,40.59,64.44-30.52c-6.19-19.21-25.51-33-46.41-33a49.49,49.49,0,1,0,0,99c23.17-.14,41.76-16.26,47.18-34.31C437.95,290.87,434.07,287.3,425.93,288.73Z" transform="translate(-187.78 -120.52)"/><polygon class="cls-2" points="237.01 205.28 263.08 205.28 288.91 172.25 314.74 205.28 333.07 205.28 338.72 202.61 301.94 155.58 338.9 108.29 312.84 108.29 288.91 138.9 264.98 108.29 238.91 108.29 275.88 155.58 237.01 205.28"/><path class="cls-3" d="M553.71,217.41a7.57,7.57,0,1,1,0,15.14,7.57,7.57,0,1,1,0-15.14h0Zm-0.09,1.52a6,6,0,0,0,.09,12.05,5.78,5.78,0,0,0,5.75-6,5.87,5.87,0,0,0-5.8-6.07h0Zm-1.15,9.94h-1.75v-7.54a20.47,20.47,0,0,1,2.9-.23,4,4,0,0,1,2.58.6,1.9,1.9,0,0,1,.78,1.61,2,2,0,0,1-1.56,1.79v0.09a2.12,2.12,0,0,1,1.33,1.84,6.7,6.7,0,0,0,.55,1.84h-1.84a6,6,0,0,1-.6-1.84,1.33,1.33,0,0,0-1.56-1.15h-0.83v3Zm0-4.23h0.83c1,0,1.75-.32,1.75-1.1s-0.51-1.15-1.61-1.15a4.17,4.17,0,0,0-1,.09v2.16Z" transform="translate(-187.78 -120.52)"/></svg>