<svg id="Layer_1" data-name="Layer 1" xmlns="http://www.w3.org/2000/svg" viewBox="0 0 65 65"><defs><style>.cls-1{fill:#e51937;}.cls-2{fill:#fff;}</style></defs><title>alert-icon</title><path class="cls-1" d="M32.5,47.11a2.7,2.7,0,0,1-2.68-2.68,0.3,0.3,0,0,0-.6,0A3.28,3.28,0,0,0,32.5,47.7,0.3,0.3,0,1,0,32.5,47.11Z"/><path class="cls-1" d="M32.5,0A32.5,32.5,0,1,0,65,32.5,32.5,32.5,0,0,0,32.5,0ZM47.29,43.72a2.29,2.29,0,0,1-1.68.71H37.27a4.77,4.77,0,0,1-8.14,3.37,4.59,4.59,0,0,1-1.4-3.37H19.38A2.42,2.42,0,0,1,17,42a16.37,16.37,0,0,0,1.7-1.64,14.78,14.78,0,0,0,1.58-2.23,16.74,16.74,0,0,0,1.39-3,21.74,21.74,0,0,0,.93-3.84A30.47,30.47,0,0,0,23,26.54a7.75,7.75,0,0,1,2.18-5.26,9.21,9.21,0,0,1,5.72-3,1.86,1.86,0,0,1-.15-0.73,1.79,1.79,0,1,1,3.58,0,1.86,1.86,0,0,1-.15.73,9.21,9.21,0,0,1,5.72,3A7.75,7.75,0,0,1,42,26.54a30.47,30.47,0,0,0,.36,4.84,21.74,21.74,0,0,0,.93,3.84,16.74,16.74,0,0,0,1.39,3A14.78,14.78,0,0,0,46.3,40.4,16.37,16.37,0,0,0,48,42,2.29,2.29,0,0,1,47.29,43.72Z"/><path class="cls-2" d="M46.3,40.4a14.78,14.78,0,0,1-1.58-2.23,16.74,16.74,0,0,1-1.39-3,21.74,21.74,0,0,1-.93-3.84A30.47,30.47,0,0,1,42,26.54a7.75,7.75,0,0,0-2.18-5.26,9.21,9.21,0,0,0-5.72-3,1.86,1.86,0,0,0,.15-0.73,1.79,1.79,0,1,0-3.58,0,1.86,1.86,0,0,0,.15.73,9.21,9.21,0,0,0-5.72,3A7.75,7.75,0,0,0,23,26.54a30.47,30.47,0,0,1-.36,4.84,21.74,21.74,0,0,1-.93,3.84,16.74,16.74,0,0,1-1.39,3A14.78,14.78,0,0,1,18.7,40.4,16.37,16.37,0,0,1,17,42a2.42,2.42,0,0,0,2.38,2.38h8.35a4.77,4.77,0,0,0,8.14,3.37,4.59,4.59,0,0,0,1.4-3.37h8.35A2.42,2.42,0,0,0,48,42,16.37,16.37,0,0,1,46.3,40.4ZM32.5,47.7a3.28,3.28,0,0,1-3.28-3.28,0.3,0.3,0,0,1,.6,0,2.7,2.7,0,0,0,2.68,2.68A0.3,0.3,0,1,1,32.5,47.7Z"/></svg>