<svg id="Layer_1" data-name="Layer 1" xmlns="http://www.w3.org/2000/svg" xmlns:xlink="http://www.w3.org/1999/xlink" viewBox="0 0 174 199.17"><defs><style>.cls-1{fill:#4e4d50;}.cls-2{fill:#fff;}.cls-3{fill:url(#linear-gradient);}.cls-4{fill:url(#linear-gradient-2);}</style><linearGradient id="linear-gradient" x1="54.19" y1="127.42" x2="42.52" y2="107.2" gradientUnits="userSpaceOnUse"><stop offset="0" stop-color="#4e4d50"/><stop offset="0.11" stop-color="#49484a"/><stop offset="0.37" stop-color="#434343"/><stop offset="1" stop-color="#414141"/></linearGradient><linearGradient id="linear-gradient-2" x1="135.74" y1="172.32" x2="81.21" y2="77.86" xlink:href="#linear-gradient"/></defs><title>fleet-icon</title><path class="cls-1" d="M171.17,48.14l-81.35-47a5.62,5.62,0,0,0-5.65,0l-81.35,47A5.65,5.65,0,0,0,0,53V147a5.65,5.65,0,0,0,2.82,4.89l81.35,47a5.67,5.67,0,0,0,5.65,0l0.95-.55,80.4-46.42A5.66,5.66,0,0,0,174,147V53A5.66,5.66,0,0,0,171.17,48.14Z" transform="translate(0 -0.41)"/><path class="cls-1" d="M119.43,132.44h0.28v-0.27Z" transform="translate(0 -0.41)"/><path class="cls-1" d="M54.29,132.31v0.13h0.13Z" transform="translate(0 -0.41)"/><path class="cls-1" d="M171.18,48.14l-81.35-47a5.64,5.64,0,0,0-5.65,0l-81.35,47A5.65,5.65,0,0,0,0,53V147a5.65,5.65,0,0,0,2.82,4.89l81.35,47a5.64,5.64,0,0,0,5.65,0l1-.55-3.21-4.67-6.69-9.73L57.34,149.64,50,131.78a2.22,2.22,0,0,1-.64-1.56l-6.8-23a2.59,2.59,0,0,1-.41-1.4v-15a2.61,2.61,0,0,1,2.61-2.61h3a2.58,2.58,0,0,1,1.59.55V54.37a2.22,2.22,0,0,1,2.22-2.22h70.86a2.21,2.21,0,0,1,1.77.89h0l38.49,56,5.65,8.21,5.65,8.22V53A5.65,5.65,0,0,0,171.18,48.14Z" transform="translate(0 -0.41)"/><path class="cls-2" d="M119.43,132.44H54.29V139a2.22,2.22,0,0,0,2.22,2.22H57.2v7.11a3.33,3.33,0,0,0,3.34,3.34h6.93a3.34,3.34,0,0,0,3.34-3.34v-7.11H103.2v7.11a3.33,3.33,0,0,0,3.34,3.34h6.93a3.34,3.34,0,0,0,3.34-3.34v-7.11h0.69a2.22,2.22,0,0,0,2.22-2.22v-6.52h-0.28Z" transform="translate(0 -0.41)"/><path class="cls-2" d="M114.71,106l-2.57-19.83a2.42,2.42,0,0,0-2.43-1.93H65.29a2.55,2.55,0,0,0-2.51,1.93L61.56,93.3,59.39,106a2.09,2.09,0,0,0,2.1,2.55h51A2.19,2.19,0,0,0,114.71,106Z" transform="translate(0 -0.41)"/><rect class="cls-2" x="58.45" y="118.52" width="13.71" height="9.91" rx="2.22" ry="2.22"/><path class="cls-2" d="M50,131.78l-0.64-1.56A2.22,2.22,0,0,0,50,131.78Z" transform="translate(0 -0.41)"/><path class="cls-2" d="M129.26,88.19h-3a2.58,2.58,0,0,0-1.59.55V54.37a2.24,2.24,0,0,0-2.22-2.22H51.57a2.22,2.22,0,0,0-2.22,2.22V88.74a2.58,2.58,0,0,0-1.59-.55h-3a2.61,2.61,0,0,0-2.61,2.61v15a2.62,2.62,0,0,0,2.61,2.61h3a2.58,2.58,0,0,0,1.59-.55v22.37L50,131.78a2.22,2.22,0,0,0,1.58.66h2.72V112.15c0-3.22,1-9.54,2.16-15.57,1.11-5.83,2.36-11.39,3-13.63,1.1-4.1,13.81-4.08,24.59-4.08h0.78c10.93,0,28.69-.12,29.81,4.08,1.23,4.55,5.12,22.87,5.12,29.19v20.29h2.72a2.22,2.22,0,0,0,2.22-2.22V107.84a2.58,2.58,0,0,0,1.59.55h3a2.61,2.61,0,0,0,2.61-2.61v-15A2.61,2.61,0,0,0,129.26,88.19Z" transform="translate(0 -0.41)"/><rect class="cls-2" x="101.84" y="118.52" width="13.71" height="9.91" rx="2.22" ry="2.22"/><path class="cls-3" d="M44.73,108.39a2.6,2.6,0,0,1-2.19-1.21l6.8,23V107.84a2.58,2.58,0,0,1-1.59.55h-3Z" transform="translate(0 -0.41)"/><path class="cls-4" d="M168.35,117.23L162.7,109,124.21,53h0a2.2,2.2,0,0,1,.45,1.33V88.74a2.58,2.58,0,0,1,1.59-.55h3a2.61,2.61,0,0,1,2.61,2.61v15a2.61,2.61,0,0,1-2.61,2.61h-3a2.58,2.58,0,0,1-1.59-.55v22.37a2.22,2.22,0,0,1-2.22,2.22h-2.72V139a2.22,2.22,0,0,1-2.22,2.22H116.8v7.11a3.34,3.34,0,0,1-3.34,3.34h-6.93a3.33,3.33,0,0,1-3.34-3.34v-7.11H70.8v7.11a3.34,3.34,0,0,1-3.34,3.34H60.53a3.33,3.33,0,0,1-3.34-3.34v-7.11H56.51A2.22,2.22,0,0,1,54.29,139v-6.52H51.57a2.22,2.22,0,0,1-1.58-.66l7.35,17.87,23.54,34.24,6.69,9.73,3.21,4.67,80.4-46.42A5.65,5.65,0,0,0,174,147V125.45Z" transform="translate(0 -0.41)"/></svg>