<?xml version="1.0" encoding="UTF-8"?>
<svg xmlns="http://www.w3.org/2000/svg" version="1.1" id="Layer_1" x="0px" y="0px" viewBox="0 0 60.775002 114.775" xml:space="preserve">
<style type="text/css">
	.st0{fill:#7f7f7f;}
</style>
<g id="XMLID_1_" transform="matrix(0.935,0,0,0.935,-14.4925,12.5075)">
	<path class="st0" d="M 48,15.5 C 30.1,15.5 15.5,30.1 15.5,48 15.5,65.9 30.1,80.5 48,80.5 65.9,80.5 80.5,65.9 80.5,48 80.5,30.1 65.9,15.5 48,15.5 Z M 63.3,58.7 58.7,63.3 48,52.6 37.3,63.3 32.7,58.7 43.4,48 32.7,37.3 37.3,32.7 48,43.4 58.7,32.7 63.3,37.3 52.6,48 63.3,58.7 Z"/>
</g>
</svg>
