<?xml version="1.0" encoding="utf-8"?>
<!-- Generator: Adobe Illustrator 19.2.1, SVG Export Plug-In . SVG Version: 6.00 Build 0)  -->
<svg version="1.1" id="Layer_1" xmlns="http://www.w3.org/2000/svg" xmlns:xlink="http://www.w3.org/1999/xlink" x="0px" y="0px"
	 viewBox="0 0 750 315.5" style="enable-background:new 0 0 750 315.5;" xml:space="preserve">
<style type="text/css">
	.st0{fill:#FFFFFF;}
	.st1{fill:none;}
	.st2{fill:#E51937;}
</style>
<title>wex-footer</title>
<path class="st0" d="M222.1,278.3c-8.5,4-18.6,6.1-30.9,6.3c-11.9,0.3-23.8-1.8-34.8-6.2c-9.9-4-19-9.9-26.6-17.5
	c-7.2-7.4-14.1-17.8-20.5-30.8L0,0v315.5h750V28L222.1,278.3L222.1,278.3z"/>
<path class="st1" d="M666.8,192.5c1.3,0,2.4-1.1,2.3-2.4c0,0,0,0,0-0.1c0-1.3-1-2.4-2.3-2.5c0,0,0,0-0.1,0l0,0
	c-1.4,0-2.5,1.1-2.5,2.5S665.4,192.5,666.8,192.5z M665.6,188.5c0.4-0.1,0.8-0.1,1.2-0.1c0.4,0,0.7,0.1,1,0.2
	c0.2,0.2,0.3,0.4,0.3,0.7c0,0.4-0.3,0.7-0.6,0.7l0,0c0.3,0.1,0.5,0.4,0.5,0.8c0,0.3,0.1,0.5,0.2,0.8h-0.8c-0.1-0.2-0.2-0.5-0.2-0.8
	c0-0.3-0.3-0.5-0.6-0.5c0,0,0,0,0,0h-0.3v1.2h-0.7L665.6,188.5L665.6,188.5z"/>
<path class="st1" d="M667.4,189.5c0-0.3-0.2-0.5-0.7-0.5c-0.1,0-0.3,0-0.4,0v0.9h0.3C667,189.9,667.4,189.8,667.4,189.5z"/>
<path class="st2" d="M668,207.6l-24.2-51.3c-0.9-1.8-2-3.5-3.4-5c-1.2-1.2-2.7-2.2-4.4-2.9c-3.5-1.3-7.3-1.3-10.8,0l-0.6,0.3
	l-90.1,43h6.2v22.7c0,0.4,0,2.1,0,2.1c0.2,5.4,3.3,6.2,5.2,6.2c1,0,2-0.3,2.8-0.8c0.9-0.5,1.6-1.3,2-2.3c0.5-1.4,0.7-2.8,0.6-4.3
	v-23.6h8.3v23.7c0,0.9,0,1.9,0.2,2.8c0.1,0.8,0.4,1.5,0.8,2.1c0.9,1.5,2.6,2.4,4.3,2.4c2,0.1,3.8-1.1,4.7-2.9
	c0.5-1.4,0.7-2.8,0.7-4.3v-23.9h8.3v24.1c0,2.1-0.3,4.2-0.9,6.2c-0.6,1.7-1.6,3.3-2.8,4.6c-1.4,1.5-3,2.7-4.8,3.5
	c-1.6,0.8-3.4,1.2-5.2,1.3h-0.6c-4.9-0.3-9.2-3.3-11.3-7.7c-0.1-0.1-0.4-0.9-0.4-0.9l-6.6,8.5c-1.9-0.1-3.7-0.6-5.5-1.4
	c-1.9-0.9-3.6-2.3-4.9-4c-0.5-0.7-1-1.4-1.4-2.2c-0.4-0.8-0.7-1.6-0.9-2.4c-0.3-0.9-0.5-1.8-0.6-2.7c-0.1-1.1-0.2-2.1-0.2-3.2v-22.7
	l-5.5,2.6c-1.9,0.9-3.6,2-5.1,3.4c-1.2,1.3-2.2,2.7-2.9,4.4c-0.7,1.8-1.1,3.8-1,5.7c0,1.8,0.3,3.5,1,5.1c0.1,0.1,0.2,0.5,0.2,0.5
	l24.7,52.3c0.9,1.9,2,3.6,3.4,5.1c1.2,1.2,2.7,2.2,4.4,2.9c1.8,0.7,3.8,1.1,5.7,1c1.7,0,3.5-0.3,5.1-1l91-43.4H646l-10.6-13.6
	l-10.5,13.5h-10.6l15.8-20.4l-15.1-19.4h10.6l9.8,12.5l9.8-12.5h10.6l-15.1,19.4l15,19.2l6.5-3.1l0,0l0.1-0.1c1.6-0.8,2.9-1.9,4-3.3
	c1.3-1.5,2.3-3.2,2.8-5.1c0.5-1.7,0.7-3.5,0.5-5.2C669.5,211.4,668.9,209.5,668,207.6z M619.8,204.3l-26.3,12.4l12.9-16.6
	c-1.7-0.9-3.6-1.4-5.6-1.4c-6.4-0.3-12.2,5.4-12.3,12.2c0.1,2.2,0.6,4.3,1.6,6.2l-4.3,5.7l6.6-3c4.4,4.3,11.4,4.6,16.2,0.6l0,0
	l0.1-0.1c0.8-0.7,1.5-1.4,2.1-2.2c1.1-1.1,2.5-1.9,4-2.1c1.8-0.4,3.8,0,5.3,1.1c-2.7,8.3-10.5,13.9-19.2,14
	c-11.2,0.2-20.4-8.8-20.5-20c-0.2-11.2,8.8-20.4,20-20.5C609.1,190.5,616.9,196,619.8,204.3L619.8,204.3z"/>
<polygon class="st0" points="534.5,191.7 532.4,192.7 532.4,192.7 534.5,191.7 "/>
<path class="st0" d="M653.4,231.3l2.3-1.1l0,0L653.4,231.3L653.4,231.3L653.4,231.3z"/>
<path class="st2" d="M666.3,190.4h0.3c0.3-0.1,0.6,0.1,0.6,0.4c0,0,0,0,0,0c0,0.3,0.1,0.5,0.2,0.8h0.8c-0.1-0.2-0.2-0.5-0.2-0.8
	c0-0.3-0.2-0.6-0.5-0.8l0,0c0.4-0.1,0.6-0.4,0.6-0.7c0-0.3-0.1-0.5-0.3-0.7c-0.3-0.2-0.6-0.3-1-0.2c-0.4,0-0.8,0-1.2,0.1v3.1h0.7
	L666.3,190.4L666.3,190.4z M666.3,189c0.1,0,0.3,0,0.4,0c0.5,0,0.7,0.2,0.7,0.5s-0.3,0.4-0.7,0.4h-0.3L666.3,189L666.3,189z"/>
<path class="st2" d="M666.8,193.2c1.7,0,3.1-1.4,3.1-3.1s-1.4-3.1-3.1-3.1c0,0,0,0,0,0l0,0c-1.7,0-3.1,1.4-3.1,3.1
	S665.1,193.1,666.8,193.2C666.8,193.2,666.8,193.2,666.8,193.2z M666.8,187.6L666.8,187.6c1.3,0,2.4,1.1,2.4,2.4c0,0,0,0,0,0.1
	c0,1.3-1,2.4-2.3,2.4c0,0,0,0-0.1,0c-1.4-0.1-2.4-1.2-2.3-2.6C664.5,188.7,665.5,187.7,666.8,187.6L666.8,187.6z"/>
</svg>
