<svg xmlns="http://www.w3.org/2000/svg" xmlns:xlink="http://www.w3.org/1999/xlink" width="24" height="24" viewBox="0 0 24 24">
    <defs>
        <path id="a" d="M13.237 16.286h-1.646c-.454 0-.822-.384-.822-.857s.368-.857.822-.857h1.646c.454 0 .823.384.823.857s-.369.857-.823.857zm-4.114 0H5.832c-.455 0-.823-.384-.823-.857s.368-.857.823-.857h3.291c.454 0 .823.384.823.857s-.369.857-.823.857zm-7.402-6h20.558a64.863 64.863 0 0 1-.278 7.074c-.06.62-.547 1.108-1.143 1.155a114.4 114.4 0 0 1-17.711 0c-.596-.047-1.082-.535-1.142-1.154a64.277 64.277 0 0 1-.284-7.075zm20.481-1.714H1.834c.05-.933.112-1.865.202-2.795.06-.617.546-1.102 1.14-1.147 5.889-.459 11.797-.459 17.686 0 .593.045 1.08.53 1.139 1.147.09.93.152 1.862.201 2.795z"/>
    </defs>
    <g fill="none" fill-rule="evenodd">
        <mask id="b" fill="#fff">
            <use xlink:href="#a"/>
        </mask>
        <use fill="#A6DAF5" xlink:href="#a"/>
        <g fill="#8E8E93" mask="url(#b)">
            <path d="M0 0h24v24H0z"/>
        </g>
    </g>
</svg>
