<svg xmlns="http://www.w3.org/2000/svg" width="300" height="169" viewBox="0 0 300 169">
    <path fill="#D9D9D9" fill-rule="evenodd" d="M298.045 40.095a1.955 1.955 0 1 0 0 3.91 1.955 1.955 0 0 0 0-3.91m0-.545a1.955 1.955 0 1 0 0-3.91 1.955 1.955 0 0 0 0 3.91m-4.419-3.91a1.955 1.955 0 1 0 0 3.91 1.955 1.955 0 0 0 0-3.91m0-4.455a1.955 1.955 0 1 0 0 3.91 1.955 1.955 0 0 0 0-3.91m-4.42 111.373a1.955 1.955 0 1 0 .001 3.91 1.955 1.955 0 0 0 0-3.91m0-106.918a1.955 1.955 0 1 0 0 3.91 1.955 1.955 0 0 0 0-3.91m0-4.455a1.955 1.955 0 1 0 0 3.91 1.955 1.955 0 0 0 0-3.91m0-4.455a1.955 1.955 0 1 0 0 3.91 1.955 1.955 0 0 0 0-3.91m-4.42 120.283a1.955 1.955 0 1 0 0 3.91 1.955 1.955 0 0 0 0-3.91m0-4.455a1.955 1.955 0 1 0 0 3.91 1.955 1.955 0 0 0 0-3.91m0-102.463a1.955 1.955 0 1 0 0 3.91 1.955 1.955 0 0 0 0-3.91m0-4.455a1.955 1.955 0 1 0 0 3.91 1.955 1.955 0 0 0 0-3.91m0-4.455a1.955 1.955 0 1 0 0 3.91 1.955 1.955 0 0 0 0-3.91m0-4.455a1.955 1.955 0 1 0 0 3.91 1.955 1.955 0 0 0 0-3.91m-4.42 124.738a1.955 1.955 0 1 0 0 3.91 1.955 1.955 0 0 0 0-3.91m0-111.373a1.955 1.955 0 1 0 0 3.91 1.955 1.955 0 0 0 0-3.91m0-4.455a1.955 1.955 0 1 0 .001 3.91 1.955 1.955 0 0 0 0-3.91m0-4.455a1.955 1.955 0 1 0 0 3.91 1.955 1.955 0 0 0 0-3.91m0-4.455a1.955 1.955 0 1 0 0 3.91 1.955 1.955 0 0 0 0-3.91m-4.42 89.098a1.956 1.956 0 1 0 .002 3.912 1.956 1.956 0 0 0-.001-3.912m0-66.824a1.956 1.956 0 1 0 0 3.912 1.956 1.956 0 0 0 0-3.912m0-4.455a1.956 1.956 0 1 0 .001 3.912 1.956 1.956 0 0 0-.001-3.912m0-4.454a1.956 1.956 0 1 0 0 3.911 1.956 1.956 0 0 0 0-3.911m0-4.455a1.956 1.956 0 1 0 0 3.912 1.956 1.956 0 0 0 0-3.912m0-4.455a1.956 1.956 0 1 0 0 3.911 1.956 1.956 0 0 0 0-3.91m-4.419 80.188a1.954 1.954 0 1 0-.001 3.908 1.954 1.954 0 0 0 .001-3.908m0-53.46a1.955 1.955 0 1 0 0 3.91 1.955 1.955 0 0 0 0-3.91m0-4.455a1.955 1.955 0 1 0 0 3.91 1.955 1.955 0 0 0 0-3.91m0-4.455a1.955 1.955 0 1 0 0 3.91 1.955 1.955 0 0 0 0-3.91m0-4.455a1.955 1.955 0 1 0 0 3.91 1.955 1.955 0 0 0 0-3.91m0-4.454a1.954 1.954 0 1 0-.001 3.909 1.954 1.954 0 0 0 .001-3.91m0-4.454a1.955 1.955 0 1 0 0 3.91 1.955 1.955 0 0 0 0-3.91m0-4.455a1.954 1.954 0 1 0-.001 3.909 1.954 1.954 0 0 0 .001-3.909m0-4.455a1.954 1.954 0 1 0-.001 3.909 1.954 1.954 0 0 0 .001-3.909m-4.42 115.828a1.955 1.955 0 1 0 0 3.91 1.955 1.955 0 0 0 0-3.91m0-4.455a1.955 1.955 0 1 0 0 3.91 1.955 1.955 0 0 0 0-3.91m0-4.455a1.955 1.955 0 1 0 0 3.91 1.955 1.955 0 0 0 0-3.91m0-4.455a1.955 1.955 0 1 0 0 3.91 1.955 1.955 0 0 0 0-3.91m0-17.82a1.955 1.955 0 1 0 0 3.91 1.955 1.955 0 0 0 0-3.91m0-71.278a1.955 1.955 0 1 0 0 3.91 1.955 1.955 0 0 0 0-3.91m0-4.455a1.955 1.955 0 1 0 0 3.91 1.955 1.955 0 0 0 0-3.91m0-4.455a1.955 1.955 0 1 0 0 3.91 1.955 1.955 0 0 0 0-3.91m0-4.455a1.955 1.955 0 1 0 0 3.91 1.955 1.955 0 0 0 0-3.91m-4.419 124.738a1.955 1.955 0 1 0 0 3.91 1.955 1.955 0 0 0 0-3.91m0-8.91a1.955 1.955 0 1 0 0 3.91 1.955 1.955 0 0 0 0-3.91m0-4.455a1.955 1.955 0 1 0 0 3.91 1.955 1.955 0 0 0 0-3.91m0-4.455a1.955 1.955 0 1 0 0 3.91 1.955 1.955 0 0 0 0-3.91m0-4.455a1.955 1.955 0 1 0 0 3.91 1.955 1.955 0 0 0 0-3.91m0-4.455a1.955 1.955 0 1 0 0 3.91 1.955 1.955 0 0 0 0-3.91m0-8.91a1.955 1.955 0 1 0 0 3.91 1.955 1.955 0 0 0 0-3.91m0-4.454a1.955 1.955 0 1 0 0 3.91 1.955 1.955 0 0 0 0-3.91m0-49.005a1.955 1.955 0 1 0 0 3.91 1.955 1.955 0 0 0 0-3.91m0-17.82a1.955 1.955 0 1 0 0 3.91 1.955 1.955 0 0 0 0-3.91m0-4.454a1.955 1.955 0 1 0 0 3.91 1.955 1.955 0 0 0 0-3.91m0-4.455a1.955 1.955 0 1 0 0 3.91 1.955 1.955 0 0 0 0-3.91m0-4.455a1.955 1.955 0 1 0 0 3.91 1.955 1.955 0 0 0 0-3.91m0-4.455a1.955 1.955 0 1 0 0 3.91 1.955 1.955 0 0 0 0-3.91m0-8.91a1.955 1.955 0 1 0 0 3.91 1.955 1.955 0 0 0 0-3.91m-4.42 124.738a1.955 1.955 0 1 0 .001 3.909 1.955 1.955 0 0 0 0-3.91m0-4.454a1.954 1.954 0 1 0 0 3.908 1.954 1.954 0 0 0 0-3.908m0-4.455a1.955 1.955 0 1 0 0 3.91 1.955 1.955 0 0 0 0-3.91m0-4.455a1.954 1.954 0 1 0 0 3.91 1.954 1.954 0 0 0 0-3.91m0-4.455a1.955 1.955 0 1 0 0 3.91 1.955 1.955 0 0 0 0-3.91m0-4.455a1.955 1.955 0 1 0 0 3.91 1.955 1.955 0 0 0 0-3.91m0-4.455a1.954 1.954 0 1 0 0 3.91 1.954 1.954 0 0 0 0-3.91m0-4.454a1.954 1.954 0 1 0 0 3.908 1.954 1.954 0 0 0 0-3.908m0-40.095a1.955 1.955 0 1 0 0 3.909 1.955 1.955 0 0 0 0-3.91m0-4.454a1.954 1.954 0 1 0 0 3.909 1.954 1.954 0 0 0 0-3.909m0-4.455a1.955 1.955 0 1 0 0 3.909 1.955 1.955 0 0 0 0-3.91m0-4.454a1.954 1.954 0 1 0 0 3.91 1.954 1.954 0 0 0 0-3.91m0-4.455a1.955 1.955 0 1 0 0 3.91 1.955 1.955 0 0 0 0-3.91m0-4.455a1.955 1.955 0 1 0 0 3.91 1.955 1.955 0 0 0 0-3.91m0-4.455a1.955 1.955 0 1 0 0 3.91 1.955 1.955 0 0 0 0-3.91m0-4.454a1.954 1.954 0 1 0 0 3.908 1.954 1.954 0 0 0 0-3.908m0-4.455a1.954 1.954 0 1 0 0 3.909 1.954 1.954 0 0 0 0-3.909m0-4.455a1.954 1.954 0 1 0 0 3.909 1.954 1.954 0 0 0 0-3.909m0-4.455a1.954 1.954 0 1 0 0 3.909 1.954 1.954 0 0 0 0-3.909m0-4.455a1.954 1.954 0 1 0 0 3.909 1.954 1.954 0 0 0 0-3.909m0-4.455a1.955 1.955 0 1 0 0 3.909 1.955 1.955 0 0 0 0-3.91m-4.42 120.284a1.955 1.955 0 1 0 0 3.91 1.955 1.955 0 0 0 0-3.91m0-4.455a1.955 1.955 0 1 0 .002 3.911 1.955 1.955 0 0 0-.002-3.91m0-4.456a1.955 1.955 0 1 0 .001 3.911 1.955 1.955 0 0 0 0-3.91m0-4.456a1.955 1.955 0 1 0 0 3.911 1.955 1.955 0 0 0 0-3.91m0-4.456a1.955 1.955 0 1 0 0 3.911 1.955 1.955 0 0 0 0-3.91m0-8.91a1.955 1.955 0 1 0 0 3.91 1.955 1.955 0 0 0 0-3.91m0-4.456a1.955 1.955 0 1 0 0 3.911 1.955 1.955 0 0 0 0-3.91m0-35.64a1.955 1.955 0 1 0 0 3.91 1.955 1.955 0 0 0 0-3.91m0-8.91a1.955 1.955 0 1 0 0 3.91 1.955 1.955 0 0 0 0-3.91m0-4.455a1.955 1.955 0 1 0 0 3.91 1.955 1.955 0 0 0 0-3.91m0-4.455a1.955 1.955 0 1 0 0 3.911 1.955 1.955 0 0 0 0-3.91m0-4.456a1.955 1.955 0 1 0 0 3.911 1.955 1.955 0 0 0 0-3.91m0-4.456a1.955 1.955 0 1 0 0 3.911 1.955 1.955 0 0 0 0-3.91m0-4.455a1.955 1.955 0 1 0 0 3.91 1.955 1.955 0 0 0 0-3.91m0-4.455a1.955 1.955 0 1 0 0 3.91 1.955 1.955 0 0 0 0-3.91m0-4.455a1.955 1.955 0 1 0 0 3.91 1.955 1.955 0 0 0 0-3.91m0-4.455a1.955 1.955 0 1 0 0 3.91 1.955 1.955 0 0 0 0-3.91m0-8.91a1.955 1.955 0 1 0 0 3.91 1.955 1.955 0 0 0 0-3.91m-4.42 120.283a1.955 1.955 0 1 0 0 3.91 1.955 1.955 0 0 0 0-3.91m0-4.455a1.955 1.955 0 1 0 0 3.91 1.955 1.955 0 0 0 0-3.91m0-4.455a1.955 1.955 0 1 0 0 3.91 1.955 1.955 0 0 0 0-3.91m0-4.455a1.955 1.955 0 1 0 0 3.91 1.955 1.955 0 0 0 0-3.91m0-4.455a1.955 1.955 0 1 0 0 3.91 1.955 1.955 0 0 0 0-3.91m0-4.455a1.955 1.955 0 1 0 0 3.91 1.955 1.955 0 0 0 0-3.91m0-8.91a1.955 1.955 0 1 0 0 3.91 1.955 1.955 0 0 0 0-3.91m0-31.184a1.955 1.955 0 1 0 0 3.91 1.955 1.955 0 0 0 0-3.91m0-4.455a1.955 1.955 0 1 0 0 3.91 1.955 1.955 0 0 0 0-3.91m0-8.91a1.955 1.955 0 1 0 0 3.91 1.955 1.955 0 0 0 0-3.91m0-4.455a1.955 1.955 0 1 0 0 3.91 1.955 1.955 0 0 0 0-3.91m0-4.455a1.955 1.955 0 1 0 0 3.91 1.955 1.955 0 0 0 0-3.91m0-4.455a1.955 1.955 0 1 0 0 3.91 1.955 1.955 0 0 0 0-3.91m0-4.455a1.955 1.955 0 1 0 0 3.91 1.955 1.955 0 0 0 0-3.91m0-4.454a1.955 1.955 0 1 0 0 3.91 1.955 1.955 0 0 0 0-3.91m0-4.455a1.955 1.955 0 1 0 0 3.91 1.955 1.955 0 0 0 0-3.91m0-4.455a1.955 1.955 0 1 0 0 3.91 1.955 1.955 0 0 0 0-3.91m0-4.455a1.955 1.955 0 1 0 0 3.91 1.955 1.955 0 0 0 0-3.91m-4.42 111.373a1.954 1.954 0 1 0 0 3.909 1.954 1.954 0 0 0 0-3.909m0-4.455a1.955 1.955 0 1 0 .001 3.91 1.955 1.955 0 0 0 0-3.91m0-4.455a1.955 1.955 0 1 0 0 3.91 1.955 1.955 0 0 0 0-3.91m0-4.455a1.955 1.955 0 1 0 0 3.91 1.955 1.955 0 0 0 0-3.91m0-4.455a1.955 1.955 0 1 0 0 3.91 1.955 1.955 0 0 0 0-3.91m0-13.365a1.955 1.955 0 1 0 0 3.91 1.955 1.955 0 0 0 0-3.91m0-4.454a1.954 1.954 0 1 0-.001 3.908 1.954 1.954 0 0 0 0-3.908m0-4.455a1.955 1.955 0 1 0 0 3.91 1.955 1.955 0 0 0 0-3.91m0-4.455a1.955 1.955 0 1 0 .001 3.91 1.955 1.955 0 0 0 0-3.91m0-22.275a1.955 1.955 0 1 0 0 3.91 1.955 1.955 0 0 0 0-3.91m0-4.455a1.955 1.955 0 1 0 0 3.91 1.955 1.955 0 0 0 0-3.91m0-4.455a1.955 1.955 0 1 0 0 3.91 1.955 1.955 0 0 0 0-3.91m0-4.455a1.955 1.955 0 1 0 0 3.91 1.955 1.955 0 0 0 0-3.91m0-4.455a1.955 1.955 0 1 0 0 3.91 1.955 1.955 0 0 0 0-3.91m0-4.455a1.955 1.955 0 1 0 0 3.91 1.955 1.955 0 0 0 0-3.91m0-4.455a1.955 1.955 0 1 0 0 3.91 1.955 1.955 0 0 0 0-3.91m0-4.454a1.954 1.954 0 1 0 0 3.909 1.954 1.954 0 0 0 0-3.91m0-4.454a1.955 1.955 0 1 0 0 3.91 1.955 1.955 0 0 0 0-3.91m0-4.455a1.955 1.955 0 1 0 0 3.91 1.955 1.955 0 0 0 0-3.91m0-4.455a1.955 1.955 0 1 0 0 3.91 1.955 1.955 0 0 0 0-3.91m0-4.455a1.955 1.955 0 1 0 0 3.91 1.955 1.955 0 0 0 0-3.91m-4.42 115.828a1.955 1.955 0 1 0 0 3.91 1.955 1.955 0 0 0 0-3.91m0-4.455a1.956 1.956 0 1 0 .001 3.911 1.956 1.956 0 0 0 0-3.91m0-4.456a1.955 1.955 0 1 0 0 3.911 1.955 1.955 0 0 0 0-3.91m0-4.456a1.956 1.956 0 1 0 0 3.911 1.956 1.956 0 0 0 0-3.91m0-13.365a1.955 1.955 0 1 0 0 3.91 1.955 1.955 0 0 0 0-3.91m0-4.456a1.955 1.955 0 1 0 0 3.911 1.955 1.955 0 0 0 0-3.91m0-8.91a1.955 1.955 0 1 0 0 3.91 1.955 1.955 0 0 0 0-3.91m0-4.455a1.956 1.956 0 1 0 0 3.911 1.956 1.956 0 0 0 0-3.911m0-4.455a1.956 1.956 0 1 0 0 3.91 1.956 1.956 0 0 0 0-3.91m0-4.455a1.955 1.955 0 1 0 0 3.91 1.955 1.955 0 0 0 0-3.91m0-4.455a1.955 1.955 0 1 0 0 3.91 1.955 1.955 0 0 0 0-3.91m0-4.455a1.955 1.955 0 1 0 0 3.91 1.955 1.955 0 0 0 0-3.91m0-4.455a1.955 1.955 0 1 0 0 3.91 1.955 1.955 0 0 0 0-3.91m0-4.455a1.955 1.955 0 1 0 0 3.91 1.955 1.955 0 0 0 0-3.91m0-4.455a1.955 1.955 0 1 0 0 3.91 1.955 1.955 0 0 0 0-3.91m0-4.455a1.955 1.955 0 1 0 0 3.911 1.955 1.955 0 0 0 0-3.91m0-4.456a1.956 1.956 0 1 0 0 3.911 1.956 1.956 0 0 0 0-3.91m0-4.456a1.955 1.955 0 1 0 0 3.911 1.955 1.955 0 0 0 0-3.91m0-4.456a1.956 1.956 0 1 0 0 3.911 1.956 1.956 0 0 0 0-3.91m0-4.455a1.955 1.955 0 1 0 0 3.91 1.955 1.955 0 0 0 0-3.91m0-4.455a1.955 1.955 0 1 0 0 3.91 1.955 1.955 0 0 0 0-3.91m0-4.455a1.955 1.955 0 1 0 0 3.91 1.955 1.955 0 0 0 0-3.91m0-4.455a1.955 1.955 0 1 0 0 3.91 1.955 1.955 0 0 0 0-3.91m0-4.455a1.955 1.955 0 1 0 0 3.91 1.955 1.955 0 0 0 0-3.91m-4.419 115.828a1.955 1.955 0 1 0-.001 3.91 1.955 1.955 0 0 0 .001-3.91m0-4.455a1.955 1.955 0 1 0 0 3.91 1.955 1.955 0 0 0 0-3.91m0-4.455a1.955 1.955 0 1 0 0 3.91 1.955 1.955 0 0 0 0-3.91m0-13.365a1.955 1.955 0 1 0 0 3.91 1.955 1.955 0 0 0 0-3.91m0-8.91a1.955 1.955 0 1 0 0 3.91 1.955 1.955 0 0 0 0-3.91m0-4.454a1.954 1.954 0 1 0-.002 3.909 1.954 1.954 0 0 0 .002-3.909m0-17.82a1.955 1.955 0 1 0 0 3.91 1.955 1.955 0 0 0 0-3.91m0-4.455a1.955 1.955 0 1 0 0 3.91 1.955 1.955 0 0 0 0-3.91m0-4.455a1.955 1.955 0 1 0 0 3.91 1.955 1.955 0 0 0 0-3.91m0-4.455a1.955 1.955 0 1 0 0 3.91 1.955 1.955 0 0 0 0-3.91m0-4.455a1.955 1.955 0 1 0 0 3.91 1.955 1.955 0 0 0 0-3.91m0-4.455a1.955 1.955 0 1 0 0 3.91 1.955 1.955 0 0 0 0-3.91m0-4.455a1.955 1.955 0 1 0 0 3.91 1.955 1.955 0 0 0 0-3.91m0-4.455a1.955 1.955 0 1 0 0 3.91 1.955 1.955 0 0 0 0-3.91m0-4.455a1.955 1.955 0 1 0 0 3.91 1.955 1.955 0 0 0 0-3.91m0-4.455a1.955 1.955 0 1 0 0 3.91 1.955 1.955 0 0 0 0-3.91m0-4.454a1.955 1.955 0 1 0-.001 3.91 1.955 1.955 0 0 0 .001-3.91m0-4.455a1.955 1.955 0 1 0 0 3.91 1.955 1.955 0 0 0 0-3.91m0-4.455a1.955 1.955 0 1 0 0 3.91 1.955 1.955 0 0 0 0-3.91m0-4.455a1.955 1.955 0 1 0 0 3.91 1.955 1.955 0 0 0 0-3.91m0-4.455a1.955 1.955 0 1 0 0 3.91 1.955 1.955 0 0 0 0-3.91m0-4.455a1.955 1.955 0 1 0 0 3.91 1.955 1.955 0 0 0 0-3.91m-4.42 93.554a1.954 1.954 0 1 0 0 3.908 1.954 1.954 0 0 0 0-3.908m0-4.456a1.955 1.955 0 1 0 0 3.91 1.955 1.955 0 0 0 0-3.91m0-13.364a1.955 1.955 0 1 0 .001 3.91 1.955 1.955 0 0 0 0-3.91m0-8.91a1.955 1.955 0 1 0 0 3.91 1.955 1.955 0 0 0 0-3.91m0-4.455a1.955 1.955 0 1 0 0 3.91 1.955 1.955 0 0 0 0-3.91m0-4.455a1.955 1.955 0 1 0 0 3.91 1.955 1.955 0 0 0 0-3.91m0-4.455a1.955 1.955 0 1 0 0 3.91 1.955 1.955 0 0 0 0-3.91m0-4.455a1.955 1.955 0 1 0 0 3.91 1.955 1.955 0 0 0 0-3.91m0-4.455a1.955 1.955 0 1 0 0 3.91 1.955 1.955 0 0 0 0-3.91m0-4.455a1.955 1.955 0 1 0 0 3.91 1.955 1.955 0 0 0 0-3.91m0-4.455a1.955 1.955 0 1 0 0 3.91 1.955 1.955 0 0 0 0-3.91m0-4.455a1.955 1.955 0 1 0 0 3.91 1.955 1.955 0 0 0 0-3.91m0-4.455a1.955 1.955 0 1 0 0 3.91 1.955 1.955 0 0 0 0-3.91m0-4.454a1.954 1.954 0 1 0-.001 3.909 1.954 1.954 0 0 0 0-3.91m0-4.454a1.955 1.955 0 1 0 0 3.91 1.955 1.955 0 0 0 0-3.91m0-4.455a1.954 1.954 0 1 0 0 3.909 1.954 1.954 0 0 0 0-3.909m0-4.455a1.955 1.955 0 1 0 0 3.909 1.955 1.955 0 0 0 0-3.909m0-4.455a1.955 1.955 0 1 0 0 3.91 1.955 1.955 0 0 0 0-3.91m0-4.455a1.955 1.955 0 1 0 0 3.91 1.955 1.955 0 0 0 0-3.91m-4.419 93.554a1.955 1.955 0 1 0 0 3.909 1.955 1.955 0 0 0 0-3.91m0-4.455a1.955 1.955 0 1 0 0 3.91 1.955 1.955 0 0 0 0-3.91m0-8.91a1.955 1.955 0 1 0 0 3.91 1.955 1.955 0 0 0 0-3.91m0-4.454a1.955 1.955 0 1 0 0 3.91 1.955 1.955 0 0 0 0-3.91m0-4.455a1.955 1.955 0 1 0 0 3.91 1.955 1.955 0 0 0 0-3.91m0-4.455a1.955 1.955 0 1 0 0 3.91 1.955 1.955 0 0 0 0-3.91m0-4.455a1.955 1.955 0 1 0 0 3.91 1.955 1.955 0 0 0 0-3.91m0-4.455a1.955 1.955 0 1 0 0 3.91 1.955 1.955 0 0 0 0-3.91m0-4.455a1.955 1.955 0 1 0 0 3.91 1.955 1.955 0 0 0 0-3.91m0-4.455a1.955 1.955 0 1 0 0 3.91 1.955 1.955 0 0 0 0-3.91m0-4.455a1.955 1.955 0 1 0 0 3.91 1.955 1.955 0 0 0 0-3.91m0-4.455a1.955 1.955 0 1 0 0 3.91 1.955 1.955 0 0 0 0-3.91m0-4.455a1.955 1.955 0 1 0 0 3.91 1.955 1.955 0 0 0 0-3.91m0-4.455a1.955 1.955 0 1 0 0 3.91 1.955 1.955 0 0 0 0-3.91m0-4.455a1.955 1.955 0 1 0 0 3.91 1.955 1.955 0 0 0 0-3.91m0-4.454a1.954 1.954 0 1 0 0 3.909 1.954 1.954 0 0 0 0-3.91m0-4.454a1.955 1.955 0 1 0 0 3.91 1.955 1.955 0 0 0 0-3.91m0-4.455a1.955 1.955 0 1 0 0 3.91 1.955 1.955 0 0 0 0-3.91m0-4.455a1.955 1.955 0 1 0 0 3.91 1.955 1.955 0 0 0 0-3.91m0-4.455a1.955 1.955 0 1 0 0 3.91 1.955 1.955 0 0 0 0-3.91m0-4.455a1.955 1.955 0 1 0 0 3.91 1.955 1.955 0 0 0 0-3.91m0-4.455a1.955 1.955 0 1 0 0 3.91 1.955 1.955 0 0 0 0-3.91m-4.42 93.553a1.955 1.955 0 1 0 .001 3.91 1.955 1.955 0 0 0 0-3.91m0-4.454a1.955 1.955 0 1 0-.001 3.91 1.955 1.955 0 0 0 0-3.91m0-8.91a1.955 1.955 0 1 0 .002 3.91 1.955 1.955 0 0 0-.001-3.91m0-4.455a1.955 1.955 0 1 0 0 3.91 1.955 1.955 0 0 0 0-3.91m0-4.455a1.955 1.955 0 1 0 0 3.91 1.955 1.955 0 0 0 0-3.91m0-4.455a1.955 1.955 0 1 0 0 3.91 1.955 1.955 0 0 0 0-3.91m0-4.455a1.955 1.955 0 1 0 0 3.91 1.955 1.955 0 0 0 0-3.91m0-4.455a1.955 1.955 0 1 0 0 3.91 1.955 1.955 0 0 0 0-3.91m0-4.455a1.955 1.955 0 1 0 0 3.91 1.955 1.955 0 0 0 0-3.91m0-4.455a1.955 1.955 0 1 0 0 3.91 1.955 1.955 0 0 0 0-3.91m0-4.455a1.955 1.955 0 1 0 0 3.91 1.955 1.955 0 0 0 0-3.91m0-4.455a1.955 1.955 0 1 0 0 3.91 1.955 1.955 0 0 0 0-3.91m0-4.455a1.955 1.955 0 1 0 0 3.91 1.955 1.955 0 0 0 0-3.91m0-4.455a1.955 1.955 0 1 0 0 3.91 1.955 1.955 0 0 0 0-3.91m0-4.454a1.955 1.955 0 1 0 0 3.91 1.955 1.955 0 0 0 0-3.91m0-4.455a1.955 1.955 0 1 0 0 3.91 1.955 1.955 0 0 0 0-3.91m0-4.455a1.955 1.955 0 1 0 0 3.91 1.955 1.955 0 0 0 0-3.91m0-4.455a1.955 1.955 0 1 0 0 3.91 1.955 1.955 0 0 0 0-3.91m0-4.455a1.955 1.955 0 1 0 0 3.91 1.955 1.955 0 0 0 0-3.91m0-4.455a1.955 1.955 0 1 0 0 3.91 1.955 1.955 0 0 0 0-3.91m0-4.455a1.955 1.955 0 1 0 0 3.91 1.955 1.955 0 0 0 0-3.91m0-4.455a1.955 1.955 0 1 0 0 3.91 1.955 1.955 0 0 0 0-3.91m-4.42 80.189a1.956 1.956 0 1 0 0 3.91 1.956 1.956 0 0 0 0-3.91m0-4.455a1.955 1.955 0 1 0 0 3.91 1.955 1.955 0 0 0 0-3.91m0-4.455a1.955 1.955 0 1 0 0 3.91 1.955 1.955 0 0 0 0-3.91m0-4.455a1.955 1.955 0 1 0 0 3.91 1.955 1.955 0 0 0 0-3.91m0-4.455a1.955 1.955 0 1 0 0 3.91 1.955 1.955 0 0 0 0-3.91m0-4.455a1.955 1.955 0 1 0 0 3.91 1.955 1.955 0 0 0 0-3.91m0-4.455a1.955 1.955 0 1 0 0 3.91 1.955 1.955 0 0 0 0-3.91m0-4.455a1.955 1.955 0 1 0 0 3.911 1.955 1.955 0 0 0 0-3.91m0-4.456a1.956 1.956 0 1 0 0 3.911 1.956 1.956 0 0 0 0-3.91m0-4.456a1.955 1.955 0 1 0 0 3.911 1.955 1.955 0 0 0 0-3.91m0-4.456a1.956 1.956 0 1 0 0 3.911 1.956 1.956 0 0 0 0-3.91m0-4.455a1.955 1.955 0 1 0 0 3.91 1.955 1.955 0 0 0 0-3.91m0-4.455a1.955 1.955 0 1 0 0 3.91 1.955 1.955 0 0 0 0-3.91m0-4.455a1.955 1.955 0 1 0 0 3.91 1.955 1.955 0 0 0 0-3.91m0-4.455a1.955 1.955 0 1 0 0 3.91 1.955 1.955 0 0 0 0-3.91m0-4.455a1.955 1.955 0 1 0 0 3.91 1.955 1.955 0 0 0 0-3.91m0-4.455a1.955 1.955 0 1 0 0 3.91 1.955 1.955 0 0 0 0-3.91m0-8.91a1.956 1.956 0 1 0 0 3.91 1.956 1.956 0 0 0 0-3.91m-4.418 75.734a1.955 1.955 0 1 0 0 3.91 1.955 1.955 0 0 0 0-3.91m0-4.455a1.955 1.955 0 1 0 0 3.91 1.955 1.955 0 0 0 0-3.91m0-4.455a1.955 1.955 0 1 0 0 3.91 1.955 1.955 0 0 0 0-3.91m0-4.455a1.955 1.955 0 1 0 0 3.91 1.955 1.955 0 0 0 0-3.91m0-4.455a1.955 1.955 0 1 0 0 3.91 1.955 1.955 0 0 0 0-3.91m0-4.455a1.955 1.955 0 1 0 0 3.91 1.955 1.955 0 0 0 0-3.91m0-4.455a1.955 1.955 0 1 0 0 3.91 1.955 1.955 0 0 0 0-3.91m0-4.455a1.955 1.955 0 1 0 0 3.911 1.955 1.955 0 0 0 0-3.91m0-4.456a1.955 1.955 0 1 0 0 3.911 1.955 1.955 0 0 0 0-3.91m0-4.456a1.955 1.955 0 1 0 0 3.91 1.955 1.955 0 0 0 0-3.91m0-4.454a1.955 1.955 0 1 0-.001 3.91 1.955 1.955 0 0 0 0-3.91m0-4.455a1.955 1.955 0 1 0 0 3.91 1.955 1.955 0 0 0 0-3.91m0-4.455a1.955 1.955 0 1 0 0 3.91 1.955 1.955 0 0 0 0-3.91m0-4.455a1.955 1.955 0 1 0 0 3.91 1.955 1.955 0 0 0 0-3.91m0-4.455a1.955 1.955 0 1 0 0 3.91 1.955 1.955 0 0 0 0-3.91m0-4.455a1.955 1.955 0 1 0 0 3.91 1.955 1.955 0 0 0 0-3.91m-4.419 84.644a1.955 1.955 0 1 0 0 3.91 1.955 1.955 0 0 0 0-3.91m0-13.365a1.956 1.956 0 1 0 0 3.91 1.956 1.956 0 0 0 0-3.91m0-4.455a1.955 1.955 0 1 0 0 3.91 1.955 1.955 0 0 0 0-3.91m0-4.455a1.955 1.955 0 1 0 0 3.91 1.955 1.955 0 0 0 0-3.91m0-4.455a1.955 1.955 0 1 0 0 3.91 1.955 1.955 0 0 0 0-3.91m0-4.455a1.955 1.955 0 1 0 0 3.91 1.955 1.955 0 0 0 0-3.91m0-4.455a1.955 1.955 0 1 0 0 3.91 1.955 1.955 0 0 0 0-3.91m0-4.455a1.955 1.955 0 1 0 0 3.91 1.955 1.955 0 0 0 0-3.91m0-4.455a1.955 1.955 0 1 0 0 3.911 1.955 1.955 0 0 0 0-3.91m0-4.456a1.956 1.956 0 1 0 0 3.911 1.956 1.956 0 0 0 0-3.91m0-4.456a1.955 1.955 0 1 0 0 3.911 1.955 1.955 0 0 0 0-3.91m0-4.456a1.956 1.956 0 1 0 0 3.911 1.956 1.956 0 0 0 0-3.91m0-4.455a1.955 1.955 0 1 0 0 3.91 1.955 1.955 0 0 0 0-3.91m0-4.455a1.955 1.955 0 1 0 0 3.91 1.955 1.955 0 0 0 0-3.91m0-4.455a1.955 1.955 0 1 0 0 3.91 1.955 1.955 0 0 0 0-3.91m0-4.455a1.955 1.955 0 1 0 0 3.91 1.955 1.955 0 0 0 0-3.91m0-4.455a1.955 1.955 0 1 0 0 3.91 1.955 1.955 0 0 0 0-3.91m-4.419 75.734a1.955 1.955 0 1 0 0 3.91 1.955 1.955 0 0 0 0-3.91m0-4.455a1.955 1.955 0 1 0 0 3.91 1.955 1.955 0 0 0 0-3.91m0-4.455a1.955 1.955 0 1 0 0 3.91 1.955 1.955 0 0 0 0-3.91m0-4.455a1.955 1.955 0 1 0 0 3.91 1.955 1.955 0 0 0 0-3.91m0-4.455a1.955 1.955 0 1 0 0 3.91 1.955 1.955 0 0 0 0-3.91m0-4.455a1.955 1.955 0 1 0 0 3.91 1.955 1.955 0 0 0 0-3.91m0-4.455a1.955 1.955 0 1 0 0 3.91 1.955 1.955 0 0 0 0-3.91m0-4.455a1.955 1.955 0 1 0 0 3.91 1.955 1.955 0 0 0 0-3.91m0-4.455a1.955 1.955 0 1 0 0 3.91 1.955 1.955 0 0 0 0-3.91m0-4.455a1.955 1.955 0 1 0 0 3.91 1.955 1.955 0 0 0 0-3.91m0-4.455a1.955 1.955 0 1 0 0 3.91 1.955 1.955 0 0 0 0-3.91m0-4.455a1.955 1.955 0 1 0 0 3.91 1.955 1.955 0 0 0 0-3.91m0-4.455a1.955 1.955 0 1 0 0 3.91 1.955 1.955 0 0 0 0-3.91m0-4.454a1.954 1.954 0 1 0-.001 3.909 1.954 1.954 0 0 0 .001-3.91m0-4.454a1.955 1.955 0 1 0 0 3.91 1.955 1.955 0 0 0 0-3.91m0-4.455a1.954 1.954 0 1 0 0 3.909 1.954 1.954 0 0 0 0-3.909m0-4.455a1.954 1.954 0 1 0 0 3.909 1.954 1.954 0 0 0 0-3.909m0-4.455a1.954 1.954 0 1 0 0 3.909 1.954 1.954 0 0 0 0-3.909m-4.42 66.824a1.955 1.955 0 1 0 0 3.91 1.955 1.955 0 0 0 0-3.91m0-4.455a1.955 1.955 0 1 0 0 3.91 1.955 1.955 0 0 0 0-3.91m0-4.455a1.955 1.955 0 1 0 0 3.91 1.955 1.955 0 0 0 0-3.91m0-4.455a1.955 1.955 0 1 0 0 3.91 1.955 1.955 0 0 0 0-3.91m0-4.455a1.955 1.955 0 1 0 0 3.91 1.955 1.955 0 0 0 0-3.91m0-4.455a1.955 1.955 0 1 0 0 3.91 1.955 1.955 0 0 0 0-3.91m0-4.455a1.955 1.955 0 1 0 0 3.91 1.955 1.955 0 0 0 0-3.91m0-4.455a1.955 1.955 0 1 0 0 3.91 1.955 1.955 0 0 0 0-3.91m0-4.455a1.955 1.955 0 1 0 0 3.91 1.955 1.955 0 0 0 0-3.91m0-4.455a1.955 1.955 0 1 0 0 3.91 1.955 1.955 0 0 0 0-3.91m0-4.455a1.955 1.955 0 1 0 0 3.91 1.955 1.955 0 0 0 0-3.91m0-4.454a1.954 1.954 0 1 0 0 3.909 1.954 1.954 0 0 0 0-3.91m0-4.454a1.955 1.955 0 1 0 0 3.91 1.955 1.955 0 0 0 0-3.91m0-4.455a1.955 1.955 0 1 0 0 3.91 1.955 1.955 0 0 0 0-3.91m0-4.455a1.955 1.955 0 1 0 0 3.91 1.955 1.955 0 0 0 0-3.91m0-4.455a1.955 1.955 0 1 0 0 3.91 1.955 1.955 0 0 0 0-3.91m-4.419 57.914a1.955 1.955 0 1 0 0 3.91 1.955 1.955 0 0 0 0-3.91m0-4.455a1.955 1.955 0 1 0 0 3.91 1.955 1.955 0 0 0 0-3.91m0-4.455a1.955 1.955 0 1 0 0 3.91 1.955 1.955 0 0 0 0-3.91m0-4.455a1.955 1.955 0 1 0 0 3.91 1.955 1.955 0 0 0 0-3.91m0-4.455a1.955 1.955 0 1 0 0 3.91 1.955 1.955 0 0 0 0-3.91m0-4.455a1.955 1.955 0 1 0 0 3.91 1.955 1.955 0 0 0 0-3.91m0-4.455a1.955 1.955 0 1 0 .001 3.911 1.955 1.955 0 0 0 0-3.91m0-4.456a1.955 1.955 0 1 0 0 3.911 1.955 1.955 0 0 0 0-3.91m0-4.456a1.955 1.955 0 1 0 0 3.911 1.955 1.955 0 0 0 0-3.91m0-4.455a1.955 1.955 0 1 0 0 3.91 1.955 1.955 0 0 0 0-3.91m0-4.455a1.955 1.955 0 1 0 0 3.91 1.955 1.955 0 0 0 0-3.91m0-4.455a1.955 1.955 0 1 0 0 3.91 1.955 1.955 0 0 0 0-3.91m0-4.455a1.955 1.955 0 1 0 0 3.91 1.955 1.955 0 0 0 0-3.91m0-8.91a1.955 1.955 0 1 0 0 3.91 1.955 1.955 0 0 0 0-3.91m-4.42 62.369a1.955 1.955 0 1 0 0 3.91 1.955 1.955 0 0 0 0-3.91m0-4.455a1.955 1.955 0 1 0 0 3.91 1.955 1.955 0 0 0 0-3.91m0-4.455a1.955 1.955 0 1 0 0 3.91 1.955 1.955 0 0 0 0-3.91m0-4.455a1.955 1.955 0 1 0 0 3.91 1.955 1.955 0 0 0 0-3.91m0-4.455a1.955 1.955 0 1 0 0 3.91 1.955 1.955 0 0 0 0-3.91m0-4.455a1.955 1.955 0 1 0 0 3.91 1.955 1.955 0 0 0 0-3.91m0-4.455a1.955 1.955 0 1 0 0 3.91 1.955 1.955 0 0 0 0-3.91m0-4.455a1.955 1.955 0 1 0 0 3.91 1.955 1.955 0 0 0 0-3.91m0-4.455a1.955 1.955 0 1 0 0 3.91 1.955 1.955 0 0 0 0-3.91m0-4.454a1.954 1.954 0 1 0-.001 3.909 1.954 1.954 0 0 0 .001-3.91m0-4.454a1.955 1.955 0 1 0 0 3.91 1.955 1.955 0 0 0 0-3.91m0-4.455a1.954 1.954 0 1 0 0 3.909 1.954 1.954 0 0 0 0-3.909m0-4.455a1.954 1.954 0 1 0 0 3.909 1.954 1.954 0 0 0 0-3.909m0-8.91a1.955 1.955 0 1 0 0 3.91 1.955 1.955 0 0 0 0-3.91m0-8.91a1.955 1.955 0 1 0 0 3.91 1.955 1.955 0 0 0 0-3.91m-4.42 80.189a1.956 1.956 0 1 0 .001 3.91 1.956 1.956 0 0 0 0-3.91m0-4.455a1.955 1.955 0 1 0 0 3.91 1.955 1.955 0 0 0 0-3.91m0-4.455a1.955 1.955 0 1 0 0 3.91 1.955 1.955 0 0 0 0-3.91m0-4.455a1.955 1.955 0 1 0 0 3.91 1.955 1.955 0 0 0 0-3.91m0-4.455a1.955 1.955 0 1 0 0 3.91 1.955 1.955 0 0 0 0-3.91m0-4.455a1.955 1.955 0 1 0 0 3.91 1.955 1.955 0 0 0 0-3.91m0-4.455a1.955 1.955 0 1 0 0 3.91 1.955 1.955 0 0 0 0-3.91m0-4.455a1.955 1.955 0 1 0 0 3.911 1.955 1.955 0 0 0 0-3.91m0-4.456a1.956 1.956 0 1 0 0 3.911 1.956 1.956 0 0 0 0-3.91m0-4.456a1.955 1.955 0 1 0 0 3.911 1.955 1.955 0 0 0 0-3.91m0-4.456a1.956 1.956 0 1 0 0 3.911 1.956 1.956 0 0 0 0-3.91m0-4.455a1.955 1.955 0 1 0 0 3.91 1.955 1.955 0 0 0 0-3.91m0-4.455a1.955 1.955 0 1 0 0 3.91 1.955 1.955 0 0 0 0-3.91m0-4.455a1.955 1.955 0 1 0 0 3.91 1.955 1.955 0 0 0 0-3.91m0-8.91a1.955 1.955 0 1 0 0 3.91 1.955 1.955 0 0 0 0-3.91m0-4.455a1.955 1.955 0 1 0 0 3.91 1.955 1.955 0 0 0 0-3.91m0-8.91a1.956 1.956 0 1 0 0 3.91 1.956 1.956 0 0 0 0-3.91m-4.419 89.099a1.956 1.956 0 1 0 0 3.91 1.956 1.956 0 0 0 0-3.91m0-8.91a1.956 1.956 0 1 0 0 3.91 1.956 1.956 0 0 0 0-3.91m0-4.455a1.956 1.956 0 1 0 0 3.91 1.956 1.956 0 0 0 0-3.91m0-4.455a1.955 1.955 0 1 0 0 3.91 1.955 1.955 0 0 0 0-3.91m0-4.455a1.956 1.956 0 1 0 0 3.91 1.956 1.956 0 0 0 0-3.91m0-4.455a1.956 1.956 0 1 0 0 3.91 1.956 1.956 0 0 0 0-3.91m0-13.365a1.955 1.955 0 1 0 0 3.911 1.955 1.955 0 0 0 0-3.91m0-4.456a1.956 1.956 0 1 0 0 3.911 1.956 1.956 0 0 0 0-3.91m0-4.456a1.956 1.956 0 1 0 0 3.911 1.956 1.956 0 0 0 0-3.91m0-4.456a1.956 1.956 0 1 0 0 3.911 1.956 1.956 0 0 0 0-3.91m0-4.455a1.955 1.955 0 1 0 0 3.91 1.955 1.955 0 0 0 0-3.91m0-4.455a1.955 1.955 0 1 0 0 3.911 1.955 1.955 0 0 0 0-3.91m0-4.456a1.955 1.955 0 1 0 0 3.91 1.955 1.955 0 0 0 0-3.91m0-22.275a1.956 1.956 0 1 0 0 3.91 1.956 1.956 0 0 0 0-3.91m-4.42 120.283a1.954 1.954 0 1 0 0 3.91 1.954 1.954 0 0 0 0-3.91m0-4.455a1.955 1.955 0 1 0 0 3.91 1.955 1.955 0 0 0 0-3.91m0-4.455a1.955 1.955 0 1 0 0 3.91 1.955 1.955 0 0 0 0-3.91m0-17.819a1.954 1.954 0 1 0-.001 3.908 1.954 1.954 0 0 0 .001-3.908m0-4.455a1.955 1.955 0 1 0 0 3.909 1.955 1.955 0 0 0 0-3.91m0-4.454a1.955 1.955 0 1 0 0 3.91 1.955 1.955 0 0 0 0-3.91m0-4.455a1.955 1.955 0 1 0 0 3.909 1.955 1.955 0 0 0 0-3.91m0-4.454a1.955 1.955 0 1 0 0 3.909 1.955 1.955 0 0 0 0-3.91m0-4.454a1.954 1.954 0 1 0 0 3.909 1.954 1.954 0 0 0 0-3.909m0-4.455a1.955 1.955 0 1 0 0 3.909 1.955 1.955 0 0 0 0-3.91m0-4.454a1.955 1.955 0 1 0 0 3.909 1.955 1.955 0 0 0 0-3.91m0-4.454a1.955 1.955 0 1 0 0 3.909 1.955 1.955 0 0 0 0-3.909m0-4.455a1.955 1.955 0 1 0 0 3.909 1.955 1.955 0 0 0 0-3.91m0-4.454a1.955 1.955 0 1 0 0 3.91 1.955 1.955 0 0 0 0-3.91m0-4.455a1.955 1.955 0 1 0 0 3.91 1.955 1.955 0 0 0 0-3.91m0-4.455a1.955 1.955 0 1 0 0 3.91 1.955 1.955 0 0 0 0-3.91m0-4.455a1.955 1.955 0 1 0 0 3.91 1.955 1.955 0 0 0 0-3.91m0-4.454a1.954 1.954 0 1 0 0 3.908 1.954 1.954 0 0 0 0-3.908m0-4.455a1.955 1.955 0 1 0 0 3.91 1.955 1.955 0 0 0 0-3.91m-4.42 84.643a1.955 1.955 0 1 0 .002 3.91 1.955 1.955 0 0 0-.001-3.91m0-4.455a1.955 1.955 0 1 0 0 3.91 1.955 1.955 0 0 0 0-3.91m0-4.454a1.955 1.955 0 1 0 0 3.91 1.955 1.955 0 0 0 0-3.91m0-4.456a1.955 1.955 0 1 0 0 3.91 1.955 1.955 0 0 0 0-3.91m0-4.454a1.954 1.954 0 1 0 0 3.909 1.954 1.954 0 0 0 0-3.909m0-4.455a1.955 1.955 0 1 0 0 3.91 1.955 1.955 0 0 0 0-3.91m0-4.455a1.955 1.955 0 1 0 .001 3.91 1.955 1.955 0 0 0-.001-3.91m0-4.455a1.955 1.955 0 1 0 0 3.91 1.955 1.955 0 0 0 0-3.91m0-4.455a1.955 1.955 0 1 0 0 3.91 1.955 1.955 0 0 0 0-3.91m0-4.455a1.955 1.955 0 1 0 0 3.91 1.955 1.955 0 0 0 0-3.91m0-4.455a1.955 1.955 0 1 0 0 3.91 1.955 1.955 0 0 0 0-3.91m0-4.455a1.955 1.955 0 1 0 0 3.91 1.955 1.955 0 0 0 0-3.91m0-4.455a1.955 1.955 0 1 0 0 3.91 1.955 1.955 0 0 0 0-3.91m0-4.455a1.955 1.955 0 1 0 0 3.91 1.955 1.955 0 0 0 0-3.91m0-4.455a1.955 1.955 0 1 0 0 3.91 1.955 1.955 0 0 0 0-3.91m0-4.455a1.955 1.955 0 1 0 0 3.91 1.955 1.955 0 0 0 0-3.91m0-4.455a1.955 1.955 0 1 0 0 3.91 1.955 1.955 0 0 0 0-3.91m0-4.455a1.955 1.955 0 1 0 0 3.91 1.955 1.955 0 0 0 0-3.91m0-4.454a1.955 1.955 0 1 0 0 3.91 1.955 1.955 0 0 0 0-3.91m0-4.455a1.955 1.955 0 1 0 0 3.91 1.955 1.955 0 0 0 0-3.91m0-4.455a1.955 1.955 0 1 0 0 3.91 1.955 1.955 0 0 0 0-3.91m-4.419 98.008a1.955 1.955 0 1 0 0 3.91 1.955 1.955 0 0 0 0-3.91m0-4.455a1.955 1.955 0 1 0 0 3.91 1.955 1.955 0 0 0 0-3.91m0-4.455a1.955 1.955 0 1 0 0 3.91 1.955 1.955 0 0 0 0-3.91m0-4.455a1.955 1.955 0 1 0 0 3.91 1.955 1.955 0 0 0 0-3.91m0-4.454a1.955 1.955 0 1 0 0 3.91 1.955 1.955 0 0 0 0-3.91m0-4.456a1.955 1.955 0 1 0 0 3.91 1.955 1.955 0 0 0 0-3.91m0-4.454a1.954 1.954 0 1 0-.001 3.909 1.954 1.954 0 0 0 .001-3.909m0-4.455a1.955 1.955 0 1 0 0 3.91 1.955 1.955 0 0 0 0-3.91m0-4.455a1.955 1.955 0 1 0 0 3.91 1.955 1.955 0 0 0 0-3.91m0-4.455a1.955 1.955 0 1 0 0 3.91 1.955 1.955 0 0 0 0-3.91m0-4.455a1.955 1.955 0 1 0 0 3.91 1.955 1.955 0 0 0 0-3.91m0-4.455a1.955 1.955 0 1 0 0 3.91 1.955 1.955 0 0 0 0-3.91m0-4.455a1.955 1.955 0 1 0 0 3.91 1.955 1.955 0 0 0 0-3.91m0-4.455a1.955 1.955 0 1 0 0 3.91 1.955 1.955 0 0 0 0-3.91m0-4.455a1.955 1.955 0 1 0 0 3.91 1.955 1.955 0 0 0 0-3.91m0-8.91a1.955 1.955 0 1 0 0 3.91 1.955 1.955 0 0 0 0-3.91m0-4.455a1.955 1.955 0 1 0 0 3.91 1.955 1.955 0 0 0 0-3.91m0-4.455a1.955 1.955 0 1 0 0 3.91 1.955 1.955 0 0 0 0-3.91m0-4.455a1.955 1.955 0 1 0 0 3.91 1.955 1.955 0 0 0 0-3.91m0-4.454a1.955 1.955 0 1 0 0 3.91 1.955 1.955 0 0 0 0-3.91m0-4.455a1.955 1.955 0 1 0 0 3.91 1.955 1.955 0 0 0 0-3.91m0-4.455a1.955 1.955 0 1 0 0 3.91 1.955 1.955 0 0 0 0-3.91m-4.42 102.463a1.955 1.955 0 1 0 .002 3.91 1.955 1.955 0 0 0-.002-3.91m0-4.455a1.955 1.955 0 1 0 .001 3.91 1.955 1.955 0 0 0 0-3.91m0-4.455a1.955 1.955 0 1 0 0 3.91 1.955 1.955 0 0 0 0-3.91m0-4.455a1.955 1.955 0 1 0 0 3.91 1.955 1.955 0 0 0 0-3.91m0-4.455a1.955 1.955 0 1 0 0 3.91 1.955 1.955 0 0 0 0-3.91m0-4.454a1.955 1.955 0 1 0 0 3.91 1.955 1.955 0 0 0 0-3.91m0-4.456a1.955 1.955 0 1 0 0 3.91 1.955 1.955 0 0 0 0-3.91m0-4.454a1.954 1.954 0 1 0-.001 3.909 1.954 1.954 0 0 0 0-3.909m0-4.455a1.955 1.955 0 1 0 .001 3.91 1.955 1.955 0 0 0 0-3.91m0-4.455a1.955 1.955 0 1 0 0 3.91 1.955 1.955 0 0 0 0-3.91m0-4.455a1.955 1.955 0 1 0 0 3.91 1.955 1.955 0 0 0 0-3.91m0-4.455a1.955 1.955 0 1 0 0 3.91 1.955 1.955 0 0 0 0-3.91m0-4.455a1.955 1.955 0 1 0 0 3.91 1.955 1.955 0 0 0 0-3.91m0-4.455a1.955 1.955 0 1 0 0 3.91 1.955 1.955 0 0 0 0-3.91m0-8.91a1.955 1.955 0 1 0 0 3.91 1.955 1.955 0 0 0 0-3.91m0-8.91a1.955 1.955 0 1 0 0 3.91 1.955 1.955 0 0 0 0-3.91m0-4.455a1.955 1.955 0 1 0 0 3.91 1.955 1.955 0 0 0 0-3.91m0-4.455a1.955 1.955 0 1 0 0 3.91 1.955 1.955 0 0 0 0-3.91m0-4.455a1.955 1.955 0 1 0 0 3.91 1.955 1.955 0 0 0 0-3.91m0-4.454a1.955 1.955 0 1 0 0 3.91 1.955 1.955 0 0 0 0-3.91m0-4.455a1.955 1.955 0 1 0 0 3.91 1.955 1.955 0 0 0 0-3.91m0-4.455a1.955 1.955 0 1 0 0 3.91 1.955 1.955 0 0 0 0-3.91m0-4.455a1.955 1.955 0 1 0 0 3.91 1.955 1.955 0 0 0 0-3.91m0-13.365a1.955 1.955 0 1 0 0 3.91 1.955 1.955 0 0 0 0-3.91m0-4.455a1.955 1.955 0 1 0 0 3.91 1.955 1.955 0 0 0 0-3.91m-4.42 129.193a1.955 1.955 0 1 0 0 3.91 1.955 1.955 0 0 0 0-3.91m0-4.455a1.956 1.956 0 1 0 0 3.911 1.956 1.956 0 0 0 0-3.91m0-4.456a1.955 1.955 0 1 0 0 3.911 1.955 1.955 0 0 0 0-3.91m0-4.456a1.956 1.956 0 1 0 0 3.911 1.956 1.956 0 0 0 0-3.91m0-4.456a1.956 1.956 0 1 0 0 3.911 1.956 1.956 0 0 0 0-3.91m0-4.456a1.955 1.955 0 1 0 0 3.911 1.955 1.955 0 0 0 0-3.91m0-4.455a1.955 1.955 0 1 0 0 3.91 1.955 1.955 0 0 0 0-3.91m0-4.456a1.956 1.956 0 1 0 0 3.911 1.956 1.956 0 0 0 0-3.91m0-4.455a1.955 1.955 0 1 0-.001 3.91 1.955 1.955 0 0 0 .001-3.91m0-4.455a1.956 1.956 0 1 0 0 3.91 1.956 1.956 0 0 0 0-3.91m0-4.455a1.956 1.956 0 1 0 0 3.911 1.956 1.956 0 0 0 0-3.911m0-4.455a1.956 1.956 0 1 0 0 3.91 1.956 1.956 0 0 0 0-3.91m0-4.455a1.956 1.956 0 1 0 0 3.91 1.956 1.956 0 0 0 0-3.91m0-4.455a1.955 1.955 0 1 0 0 3.91 1.955 1.955 0 0 0 0-3.91m0-4.455a1.956 1.956 0 1 0 0 3.91 1.956 1.956 0 0 0 0-3.91m0-8.91a1.955 1.955 0 1 0 0 3.91 1.955 1.955 0 0 0 0-3.91m0-4.455a1.956 1.956 0 1 0 0 3.91 1.956 1.956 0 0 0 0-3.91m0-4.455a1.955 1.955 0 1 0 0 3.911 1.955 1.955 0 0 0 0-3.91m0-4.456a1.956 1.956 0 1 0 0 3.911 1.956 1.956 0 0 0 0-3.91m0-4.456a1.956 1.956 0 1 0 0 3.911 1.956 1.956 0 0 0 0-3.91m0-4.456a1.956 1.956 0 1 0 0 3.911 1.956 1.956 0 0 0 0-3.91m0-4.455a1.955 1.955 0 1 0 0 3.91 1.955 1.955 0 0 0 0-3.91m0-4.455a1.955 1.955 0 1 0 0 3.911 1.955 1.955 0 0 0 0-3.91m0-4.456a1.955 1.955 0 1 0 0 3.91 1.955 1.955 0 0 0 0-3.91m0-4.455a1.955 1.955 0 1 0 0 3.91 1.955 1.955 0 0 0 0-3.91m0-13.365a1.956 1.956 0 1 0 0 3.911 1.956 1.956 0 0 0 0-3.911m0-4.455a1.956 1.956 0 1 0 0 3.91 1.956 1.956 0 0 0 0-3.91m-4.419 129.193a1.955 1.955 0 1 0 0 3.91 1.955 1.955 0 0 0 0-3.91m0-4.455a1.955 1.955 0 1 0 0 3.91 1.955 1.955 0 0 0 0-3.91m0-4.455a1.955 1.955 0 1 0 0 3.91 1.955 1.955 0 0 0 0-3.91m0-4.455a1.955 1.955 0 1 0 0 3.91 1.955 1.955 0 0 0 0-3.91m0-4.455a1.955 1.955 0 1 0 0 3.91 1.955 1.955 0 0 0 0-3.91m0-4.455a1.955 1.955 0 1 0 0 3.91 1.955 1.955 0 0 0 0-3.91m0-4.454a1.955 1.955 0 1 0 0 3.91 1.955 1.955 0 0 0 0-3.91m0-4.456a1.955 1.955 0 1 0 0 3.91 1.955 1.955 0 0 0 0-3.91m0-4.454a1.954 1.954 0 1 0-.001 3.909 1.954 1.954 0 0 0 .001-3.909m0-4.455a1.955 1.955 0 1 0 0 3.91 1.955 1.955 0 0 0 0-3.91m0-4.455a1.955 1.955 0 1 0 0 3.91 1.955 1.955 0 0 0 0-3.91m0-4.455a1.955 1.955 0 1 0 0 3.91 1.955 1.955 0 0 0 0-3.91m0-4.455a1.955 1.955 0 1 0 0 3.91 1.955 1.955 0 0 0 0-3.91m0-4.455a1.955 1.955 0 1 0 0 3.91 1.955 1.955 0 0 0 0-3.91m0-4.455a1.955 1.955 0 1 0 0 3.91 1.955 1.955 0 0 0 0-3.91m0-8.91a1.955 1.955 0 1 0 0 3.91 1.955 1.955 0 0 0 0-3.91m0-13.365a1.955 1.955 0 1 0 0 3.91 1.955 1.955 0 0 0 0-3.91m0-4.455a1.955 1.955 0 1 0 0 3.91 1.955 1.955 0 0 0 0-3.91m0-13.364a1.955 1.955 0 1 0 0 3.91 1.955 1.955 0 0 0 0-3.91m0-4.455a1.955 1.955 0 1 0 0 3.91 1.955 1.955 0 0 0 0-3.91m0-4.455a1.955 1.955 0 1 0 0 3.91 1.955 1.955 0 0 0 0-3.91m0-13.365a1.955 1.955 0 1 0 0 3.91 1.955 1.955 0 0 0 0-3.91m0-4.455a1.955 1.955 0 1 0 0 3.91 1.955 1.955 0 0 0 0-3.91m-4.42 120.283a1.955 1.955 0 1 0 .001 3.91 1.955 1.955 0 0 0 0-3.91m0-4.455a1.955 1.955 0 1 0 0 3.91 1.955 1.955 0 0 0 0-3.91m0-4.455a1.955 1.955 0 1 0 0 3.91 1.955 1.955 0 0 0 0-3.91m0-4.455a1.955 1.955 0 1 0 0 3.91 1.955 1.955 0 0 0 0-3.91m0-4.454a1.955 1.955 0 1 0 0 3.91 1.955 1.955 0 0 0 0-3.91m0-4.456a1.955 1.955 0 1 0 0 3.91 1.955 1.955 0 0 0 0-3.91m0-4.454a1.954 1.954 0 1 0-.001 3.909 1.954 1.954 0 0 0 0-3.909m0-4.455a1.955 1.955 0 1 0 .001 3.91 1.955 1.955 0 0 0 0-3.91m0-4.455a1.955 1.955 0 1 0 0 3.91 1.955 1.955 0 0 0 0-3.91m0-4.455a1.955 1.955 0 1 0 0 3.91 1.955 1.955 0 0 0 0-3.91m0-4.455a1.955 1.955 0 1 0 0 3.91 1.955 1.955 0 0 0 0-3.91m0-4.455a1.955 1.955 0 1 0 0 3.91 1.955 1.955 0 0 0 0-3.91m0-4.455a1.955 1.955 0 1 0 0 3.91 1.955 1.955 0 0 0 0-3.91m0-8.91a1.955 1.955 0 1 0 0 3.91 1.955 1.955 0 0 0 0-3.91m0-13.365a1.955 1.955 0 1 0 0 3.91 1.955 1.955 0 0 0 0-3.91m0-4.455a1.955 1.955 0 1 0 0 3.91 1.955 1.955 0 0 0 0-3.91m0-4.455a1.955 1.955 0 1 0 0 3.91 1.955 1.955 0 0 0 0-3.91m0-4.454a1.955 1.955 0 1 0 0 3.91 1.955 1.955 0 0 0 0-3.91m0-4.455a1.955 1.955 0 1 0 0 3.91 1.955 1.955 0 0 0 0-3.91m0-4.455a1.955 1.955 0 1 0 0 3.91 1.955 1.955 0 0 0 0-3.91m0-17.82a1.955 1.955 0 1 0 0 3.91 1.955 1.955 0 0 0 0-3.91m0-4.455a1.955 1.955 0 1 0 0 3.91 1.955 1.955 0 0 0 0-3.91m-4.42 98.008a1.955 1.955 0 1 0 0 3.91 1.955 1.955 0 0 0 0-3.91m0-4.454a1.954 1.954 0 1 0 0 3.909 1.954 1.954 0 0 0 0-3.909m0-4.455a1.955 1.955 0 1 0 0 3.91 1.955 1.955 0 0 0 0-3.91m0-4.455a1.955 1.955 0 1 0 .001 3.91 1.955 1.955 0 0 0 0-3.91m0-4.455a1.955 1.955 0 1 0 0 3.91 1.955 1.955 0 0 0 0-3.91m0-4.455a1.955 1.955 0 1 0 0 3.91 1.955 1.955 0 0 0 0-3.91m0-4.455a1.955 1.955 0 1 0 0 3.91 1.955 1.955 0 0 0 0-3.91m0-4.455a1.955 1.955 0 1 0 0 3.91 1.955 1.955 0 0 0 0-3.91m0-4.455a1.955 1.955 0 1 0 0 3.91 1.955 1.955 0 0 0 0-3.91m0-8.91a1.955 1.955 0 1 0 0 3.91 1.955 1.955 0 0 0 0-3.91m0-4.455a1.955 1.955 0 1 0 0 3.91 1.955 1.955 0 0 0 0-3.91m0-4.455a1.955 1.955 0 1 0 0 3.91 1.955 1.955 0 0 0 0-3.91m0-8.91a1.955 1.955 0 1 0 0 3.91 1.955 1.955 0 0 0 0-3.91m0-4.454a1.955 1.955 0 1 0 0 3.91 1.955 1.955 0 0 0 0-3.91m-4.42 62.37a1.955 1.955 0 1 0 0 3.908 1.955 1.955 0 0 0 0-3.909m0-4.455a1.955 1.955 0 1 0 0 3.91 1.955 1.955 0 0 0 0-3.91m0-4.455a1.955 1.955 0 1 0 .001 3.91 1.955 1.955 0 0 0 0-3.91m0-4.455a1.955 1.955 0 1 0 0 3.91 1.955 1.955 0 0 0 0-3.91m0-4.455a1.955 1.955 0 1 0 0 3.91 1.955 1.955 0 0 0 0-3.91m0-4.455a1.955 1.955 0 1 0 0 3.91 1.955 1.955 0 0 0 0-3.91m0-4.455a1.955 1.955 0 1 0 0 3.91 1.955 1.955 0 0 0 0-3.91m0-4.455a1.955 1.955 0 1 0 0 3.91 1.955 1.955 0 0 0 0-3.91m0-4.455a1.955 1.955 0 1 0 0 3.91 1.955 1.955 0 0 0 0-3.91m0-4.455a1.955 1.955 0 1 0 0 3.91 1.955 1.955 0 0 0 0-3.91m0-4.455a1.955 1.955 0 1 0 0 3.91 1.955 1.955 0 0 0 0-3.91m0-4.455a1.955 1.955 0 1 0 0 3.91 1.955 1.955 0 0 0 0-3.91m-4.42 49.005a1.954 1.954 0 1 0-.002 3.908 1.954 1.954 0 0 0 .002-3.908m0-4.455a1.955 1.955 0 1 0 0 3.91 1.955 1.955 0 0 0 0-3.91m0-4.455a1.955 1.955 0 1 0 0 3.91 1.955 1.955 0 0 0 0-3.91m0-4.455a1.955 1.955 0 1 0 0 3.91 1.955 1.955 0 0 0 0-3.91m0-4.455a1.955 1.955 0 1 0 0 3.91 1.955 1.955 0 0 0 0-3.91m0-4.455a1.955 1.955 0 1 0 0 3.91 1.955 1.955 0 0 0 0-3.91m0-4.455a1.955 1.955 0 1 0 0 3.91 1.955 1.955 0 0 0 0-3.91m0-4.455a1.955 1.955 0 1 0 0 3.91 1.955 1.955 0 0 0 0-3.91m0-4.455a1.955 1.955 0 1 0 0 3.91 1.955 1.955 0 0 0 0-3.91m0-4.455a1.955 1.955 0 1 0 0 3.91 1.955 1.955 0 0 0 0-3.91m0-4.455a1.955 1.955 0 1 0 0 3.91 1.955 1.955 0 0 0 0-3.91m0-4.455a1.955 1.955 0 1 0 0 3.91 1.955 1.955 0 0 0 0-3.91m0-4.455a1.955 1.955 0 1 0 0 3.91 1.955 1.955 0 0 0 0-3.91m0-4.455a1.955 1.955 0 1 0 0 3.91 1.955 1.955 0 0 0 0-3.91m-4.42 57.915a1.954 1.954 0 1 0 0 3.909 1.954 1.954 0 0 0 0-3.909m0-4.455a1.955 1.955 0 1 0 0 3.91 1.955 1.955 0 0 0 0-3.91m0-4.455a1.955 1.955 0 1 0 .001 3.91 1.955 1.955 0 0 0 0-3.91m0-4.455a1.955 1.955 0 1 0 0 3.91 1.955 1.955 0 0 0 0-3.91m0-4.455a1.955 1.955 0 1 0 0 3.91 1.955 1.955 0 0 0 0-3.91m0-4.455a1.955 1.955 0 1 0 0 3.91 1.955 1.955 0 0 0 0-3.91m0-4.455a1.955 1.955 0 1 0 0 3.91 1.955 1.955 0 0 0 0-3.91m0-4.455a1.955 1.955 0 1 0 0 3.91 1.955 1.955 0 0 0 0-3.91m0-4.455a1.955 1.955 0 1 0 0 3.91 1.955 1.955 0 0 0 0-3.91m0-13.365a1.955 1.955 0 1 0 0 3.91 1.955 1.955 0 0 0 0-3.91m0-4.455a1.955 1.955 0 1 0 0 3.91 1.955 1.955 0 0 0 0-3.91m-4.42 49.005a1.955 1.955 0 1 0 0 3.91 1.955 1.955 0 0 0 0-3.91m0-4.455a1.955 1.955 0 1 0 .001 3.91 1.955 1.955 0 0 0 0-3.91m0-4.455a1.955 1.955 0 1 0 0 3.91 1.955 1.955 0 0 0 0-3.91m0-4.455a1.955 1.955 0 1 0 0 3.91 1.955 1.955 0 0 0 0-3.91m0-4.455a1.955 1.955 0 1 0 0 3.91 1.955 1.955 0 0 0 0-3.91m0-75.734a1.955 1.955 0 1 0 0 3.91 1.955 1.955 0 0 0 0-3.91m-4.42 89.099a1.955 1.955 0 1 0 0 3.91 1.955 1.955 0 0 0 0-3.91m0-4.455a1.955 1.955 0 1 0 0 3.91 1.955 1.955 0 0 0 0-3.91m0-4.455a1.955 1.955 0 1 0 0 3.91 1.955 1.955 0 0 0 0-3.91m0-49.004a1.955 1.955 0 1 0 0 3.91 1.955 1.955 0 0 0 0-3.91m0-13.365a1.955 1.955 0 1 0 0 3.91 1.955 1.955 0 0 0 0-3.91m0-4.455a1.955 1.955 0 1 0 0 3.91 1.955 1.955 0 0 0 0-3.91m0-4.455a1.955 1.955 0 1 0 0 3.91 1.955 1.955 0 0 0 0-3.91m0-4.455a1.955 1.955 0 1 0 0 3.91 1.955 1.955 0 0 0 0-3.91m0-4.455a1.955 1.955 0 1 0 0 3.91 1.955 1.955 0 0 0 0-3.91m-4.419 31.185a1.955 1.955 0 1 0 0 3.91 1.955 1.955 0 0 0 0-3.91m0-8.91a1.955 1.955 0 1 0 0 3.91 1.955 1.955 0 0 0 0-3.91m0-4.455a1.955 1.955 0 1 0 0 3.91 1.955 1.955 0 0 0 0-3.91m0-4.455a1.955 1.955 0 1 0 0 3.91 1.955 1.955 0 0 0 0-3.91m0-4.455a1.955 1.955 0 1 0 0 3.91 1.955 1.955 0 0 0 0-3.91m0-4.455a1.955 1.955 0 1 0 0 3.91 1.955 1.955 0 0 0 0-3.91m0-4.455a1.955 1.955 0 1 0 0 3.91 1.955 1.955 0 0 0 0-3.91m0-4.455a1.955 1.955 0 1 0 0 3.91 1.955 1.955 0 0 0 0-3.91m-4.42 31.185a1.955 1.955 0 1 0 0 3.91 1.955 1.955 0 0 0 0-3.91m0-4.455a1.955 1.955 0 1 0 0 3.91 1.955 1.955 0 0 0 0-3.91m0-4.455a1.955 1.955 0 1 0 0 3.91 1.955 1.955 0 0 0 0-3.91m0-4.455a1.955 1.955 0 1 0 .001 3.91 1.955 1.955 0 0 0 0-3.91m0-4.455a1.956 1.956 0 1 0 0 3.911 1.956 1.956 0 0 0 0-3.911m0-4.455a1.956 1.956 0 1 0 0 3.91 1.956 1.956 0 0 0 0-3.91m0-4.455a1.956 1.956 0 1 0 0 3.91 1.956 1.956 0 0 0 0-3.91m0-4.455a1.955 1.955 0 1 0 0 3.91 1.955 1.955 0 0 0 0-3.91m-4.42 115.828a1.955 1.955 0 1 0 0 3.91 1.955 1.955 0 0 0 0-3.91m0-4.454a1.955 1.955 0 1 0 0 3.91 1.955 1.955 0 0 0 0-3.91m0-80.189a1.955 1.955 0 1 0 0 3.91 1.955 1.955 0 0 0 0-3.91m0-4.455a1.955 1.955 0 1 0 0 3.91 1.955 1.955 0 0 0 0-3.91m0-4.455a1.955 1.955 0 1 0 0 3.91 1.955 1.955 0 0 0 0-3.91m0-4.455a1.955 1.955 0 1 0 0 3.91 1.955 1.955 0 0 0 0-3.91m0-4.455a1.955 1.955 0 1 0 0 3.91 1.955 1.955 0 0 0 0-3.91m0-4.455a1.955 1.955 0 1 0 0 3.91 1.955 1.955 0 0 0 0-3.91m0-4.455a1.955 1.955 0 1 0 0 3.91 1.955 1.955 0 0 0 0-3.91m0-4.455a1.955 1.955 0 1 0 0 3.91 1.955 1.955 0 0 0 0-3.91m-4.419 124.738a1.955 1.955 0 1 0 0 3.91 1.955 1.955 0 0 0 0-3.91m0-4.455a1.955 1.955 0 1 0 0 3.91 1.955 1.955 0 0 0 0-3.91m0-4.455a1.955 1.955 0 1 0 0 3.91 1.955 1.955 0 0 0 0-3.91m0-4.454a1.955 1.955 0 1 0 0 3.91 1.955 1.955 0 0 0 0-3.91m0-75.734a1.955 1.955 0 1 0 0 3.91 1.955 1.955 0 0 0 0-3.91m0-4.455a1.955 1.955 0 1 0 0 3.91 1.955 1.955 0 0 0 0-3.91m0-4.455a1.955 1.955 0 1 0 0 3.91 1.955 1.955 0 0 0 0-3.91m0-4.455a1.955 1.955 0 1 0 0 3.91 1.955 1.955 0 0 0 0-3.91m0-4.455a1.955 1.955 0 1 0 0 3.91 1.955 1.955 0 0 0 0-3.91m0-4.455a1.956 1.956 0 1 0 0 3.91 1.956 1.956 0 0 0 0-3.91m0-4.455a1.955 1.955 0 1 0 0 3.91 1.955 1.955 0 0 0 0-3.91m0-4.455a1.955 1.955 0 1 0 0 3.91 1.955 1.955 0 0 0 0-3.91m0-4.455a1.955 1.955 0 1 0 0 3.91 1.955 1.955 0 0 0 0-3.91m-4.419 129.193a1.955 1.955 0 1 0 0 3.91 1.955 1.955 0 0 0 0-3.91m0-4.455a1.955 1.955 0 1 0 0 3.91 1.955 1.955 0 0 0 0-3.91m0-4.455a1.955 1.955 0 1 0 0 3.91 1.955 1.955 0 0 0 0-3.91m0-4.455a1.955 1.955 0 1 0 0 3.91 1.955 1.955 0 0 0 0-3.91m0-4.454a1.955 1.955 0 1 0 0 3.909 1.955 1.955 0 0 0 0-3.91m0-4.455a1.955 1.955 0 1 0 0 3.91 1.955 1.955 0 0 0 0-3.91m0-62.369a1.955 1.955 0 1 0 0 3.91 1.955 1.955 0 0 0 0-3.91m0-4.454a1.954 1.954 0 1 0 0 3.909 1.954 1.954 0 0 0 0-3.91m0-4.454a1.955 1.955 0 1 0 0 3.91 1.955 1.955 0 0 0 0-3.91m0-4.455a1.955 1.955 0 1 0 0 3.91 1.955 1.955 0 0 0 0-3.91m0-4.455a1.955 1.955 0 1 0 0 3.91 1.955 1.955 0 0 0 0-3.91m0-4.455a1.955 1.955 0 1 0 0 3.91 1.955 1.955 0 0 0 0-3.91m0-4.455a1.955 1.955 0 1 0 0 3.91 1.955 1.955 0 0 0 0-3.91m0-4.455a1.955 1.955 0 1 0 0 3.91 1.955 1.955 0 0 0 0-3.91m0-4.455a1.955 1.955 0 1 0 0 3.91 1.955 1.955 0 0 0 0-3.91m0-4.455a1.955 1.955 0 1 0 0 3.91 1.955 1.955 0 0 0 0-3.91M99.18 133.648a1.955 1.955 0 1 0 0 3.91 1.955 1.955 0 0 0 0-3.91m0-4.455a1.955 1.955 0 1 0 0 3.91 1.955 1.955 0 0 0 0-3.91m0-4.455a1.955 1.955 0 1 0 0 3.91 1.955 1.955 0 0 0 0-3.91m0-4.455a1.955 1.955 0 1 0 0 3.91 1.955 1.955 0 0 0 0-3.91m0-4.455a1.955 1.955 0 1 0 0 3.91 1.955 1.955 0 0 0 0-3.91m0-4.454a1.955 1.955 0 1 0-.001 3.91 1.955 1.955 0 0 0 .001-3.91m0-4.456a1.955 1.955 0 1 0 0 3.91 1.955 1.955 0 0 0 0-3.91m0-4.454a1.954 1.954 0 1 0-.002 3.909 1.954 1.954 0 0 0 .002-3.909m0-62.37a1.955 1.955 0 1 0-.001 3.91 1.955 1.955 0 0 0 .001-3.91m0-4.454a1.955 1.955 0 1 0 0 3.91 1.955 1.955 0 0 0 0-3.91m0-4.455a1.955 1.955 0 1 0-.001 3.91 1.955 1.955 0 0 0 .001-3.91m0-4.455a1.955 1.955 0 1 0 0 3.91 1.955 1.955 0 0 0 0-3.91m0-4.455a1.955 1.955 0 1 0 0 3.91 1.955 1.955 0 0 0 0-3.91m0-4.455a1.955 1.955 0 1 0 0 3.91 1.955 1.955 0 0 0 0-3.91m0-4.455a1.955 1.955 0 1 0 0 3.91 1.955 1.955 0 0 0 0-3.91m0-4.455a1.955 1.955 0 1 0 0 3.91 1.955 1.955 0 0 0 0-3.91m0-4.455a1.955 1.955 0 1 0 0 3.91 1.955 1.955 0 0 0 0-3.91m-4.42 133.648a1.955 1.955 0 1 0 0 3.91 1.955 1.955 0 0 0 0-3.91m0-4.455a1.955 1.955 0 1 0 0 3.91 1.955 1.955 0 0 0 0-3.91m0-4.455a1.955 1.955 0 1 0 0 3.91 1.955 1.955 0 0 0 0-3.91m0-4.455a1.955 1.955 0 1 0 0 3.91 1.955 1.955 0 0 0 0-3.91m0-4.455a1.955 1.955 0 1 0 0 3.91 1.955 1.955 0 0 0 0-3.91m0-4.455a1.955 1.955 0 1 0 0 3.91 1.955 1.955 0 0 0 0-3.91m0-4.454a1.955 1.955 0 1 0 0 3.909 1.955 1.955 0 0 0 0-3.91m0-4.455a1.955 1.955 0 1 0 0 3.91 1.955 1.955 0 0 0 0-3.91m0-4.454a1.954 1.954 0 1 0 0 3.909 1.954 1.954 0 0 0 0-3.909m0-4.455a1.955 1.955 0 1 0 0 3.91 1.955 1.955 0 0 0 0-3.91m0-40.095a1.955 1.955 0 1 0 0 3.91 1.955 1.955 0 0 0 0-3.91m0-4.455a1.955 1.955 0 1 0 0 3.91 1.955 1.955 0 0 0 0-3.91m0-26.729a1.955 1.955 0 1 0 0 3.91 1.955 1.955 0 0 0 0-3.91m0-4.455a1.955 1.955 0 1 0 0 3.91 1.955 1.955 0 0 0 0-3.91m0-4.455a1.955 1.955 0 1 0 0 3.91 1.955 1.955 0 0 0 0-3.91m0-4.455a1.955 1.955 0 1 0 .001 3.91 1.955 1.955 0 0 0 0-3.91m0-4.455a1.955 1.955 0 1 0 0 3.91 1.955 1.955 0 0 0 0-3.91m0-4.455a1.955 1.955 0 1 0 0 3.91 1.955 1.955 0 0 0 0-3.91m-4.42 155.923a1.956 1.956 0 1 0 .001 3.91 1.956 1.956 0 0 0 0-3.91m0-17.82a1.955 1.955 0 1 0 0 3.91 1.955 1.955 0 0 0 0-3.91m0-4.455a1.955 1.955 0 1 0-.001 3.91 1.955 1.955 0 0 0 0-3.91m0-4.455a1.955 1.955 0 1 0 0 3.911 1.955 1.955 0 0 0 0-3.91m0-4.456a1.955 1.955 0 1 0 0 3.911 1.955 1.955 0 0 0 0-3.91m0-4.456a1.955 1.955 0 1 0 0 3.911 1.955 1.955 0 0 0 0-3.91m0-4.456a1.955 1.955 0 1 0 0 3.911 1.955 1.955 0 0 0 0-3.91m0-4.456a1.955 1.955 0 1 0 0 3.911 1.955 1.955 0 0 0 0-3.91m0-4.455a1.955 1.955 0 1 0 0 3.91 1.955 1.955 0 0 0 0-3.91m0-4.456a1.955 1.955 0 1 0 0 3.911 1.955 1.955 0 0 0 0-3.91m0-4.455a1.955 1.955 0 1 0 0 3.91 1.955 1.955 0 0 0 0-3.91m0-4.455a1.955 1.955 0 1 0 0 3.91 1.955 1.955 0 0 0 0-3.91m0-35.64a1.955 1.955 0 1 0 0 3.91 1.955 1.955 0 0 0 0-3.91m0-4.455a1.955 1.955 0 1 0 0 3.91 1.955 1.955 0 0 0 0-3.91m0-4.455a1.955 1.955 0 1 0 0 3.911 1.955 1.955 0 0 0 0-3.91m0-4.456a1.955 1.955 0 1 0 0 3.911 1.955 1.955 0 0 0 0-3.91m0-31.185a1.955 1.955 0 1 0 0 3.91 1.955 1.955 0 0 0 0-3.91m0-4.455a1.956 1.956 0 1 0 .001 3.911 1.956 1.956 0 0 0 0-3.911m0-4.455a1.955 1.955 0 1 0 0 3.91 1.955 1.955 0 0 0 0-3.91m-4.42 155.923a1.955 1.955 0 1 0 0 3.91 1.955 1.955 0 0 0 0-3.91m0-4.455a1.955 1.955 0 1 0 0 3.91 1.955 1.955 0 0 0 0-3.91m0-4.455a1.955 1.955 0 1 0 0 3.91 1.955 1.955 0 0 0 0-3.91m0-4.455a1.955 1.955 0 1 0 0 3.91 1.955 1.955 0 0 0 0-3.91m0-4.455a1.955 1.955 0 1 0 0 3.91 1.955 1.955 0 0 0 0-3.91m0-4.455a1.955 1.955 0 1 0 0 3.91 1.955 1.955 0 0 0 0-3.91m0-4.455a1.955 1.955 0 1 0 0 3.91 1.955 1.955 0 0 0 0-3.91m0-4.455a1.955 1.955 0 1 0 0 3.91 1.955 1.955 0 0 0 0-3.91m0-4.455a1.955 1.955 0 1 0 0 3.91 1.955 1.955 0 0 0 0-3.91m0-4.455a1.955 1.955 0 1 0 0 3.91 1.955 1.955 0 0 0 0-3.91m0-4.455a1.955 1.955 0 1 0 0 3.91 1.955 1.955 0 0 0 0-3.91m0-4.455a1.955 1.955 0 1 0 0 3.91 1.955 1.955 0 0 0 0-3.91m0-4.454a1.955 1.955 0 1 0 0 3.91 1.955 1.955 0 0 0 0-3.91m0-4.456a1.955 1.955 0 1 0 0 3.91 1.955 1.955 0 0 0 0-3.91m0-4.454a1.954 1.954 0 1 0-.001 3.909 1.954 1.954 0 0 0 .001-3.909m0-4.455a1.955 1.955 0 1 0 0 3.91 1.955 1.955 0 0 0 0-3.91m0-35.64a1.955 1.955 0 1 0 0 3.91 1.955 1.955 0 0 0 0-3.91m0-4.455a1.955 1.955 0 1 0 0 3.91 1.955 1.955 0 0 0 0-3.91m0-13.365a1.955 1.955 0 1 0 0 3.91 1.955 1.955 0 0 0 0-3.91m0-4.454a1.955 1.955 0 1 0 0 3.91 1.955 1.955 0 0 0 0-3.91m0-4.455a1.955 1.955 0 1 0 0 3.91 1.955 1.955 0 0 0 0-3.91m0-4.455a1.955 1.955 0 1 0 0 3.91 1.955 1.955 0 0 0 0-3.91m0-13.365a1.955 1.955 0 1 0 0 3.91 1.955 1.955 0 0 0 0-3.91m0-4.455a1.955 1.955 0 1 0 0 3.91 1.955 1.955 0 0 0 0-3.91m0-8.91a1.955 1.955 0 1 0 0 3.91 1.955 1.955 0 0 0 0-3.91m-4.419 155.923a1.955 1.955 0 1 0 0 3.91 1.955 1.955 0 0 0 0-3.91m0-4.455a1.955 1.955 0 1 0 0 3.91 1.955 1.955 0 0 0 0-3.91m0-4.455a1.955 1.955 0 1 0 0 3.91 1.955 1.955 0 0 0 0-3.91m0-4.455a1.955 1.955 0 1 0 0 3.91 1.955 1.955 0 0 0 0-3.91m0-4.455a1.955 1.955 0 1 0 0 3.91 1.955 1.955 0 0 0 0-3.91m0-4.455a1.955 1.955 0 1 0-.001 3.91 1.955 1.955 0 0 0 .001-3.91m0-4.455a1.955 1.955 0 1 0 0 3.911 1.955 1.955 0 0 0 0-3.91m0-4.456a1.955 1.955 0 1 0 0 3.91 1.955 1.955 0 0 0 0-3.91m0-4.455a1.955 1.955 0 1 0 0 3.91 1.955 1.955 0 0 0 0-3.91m0-4.455a1.955 1.955 0 1 0 0 3.91 1.955 1.955 0 0 0 0-3.91m0-4.455a1.955 1.955 0 1 0 0 3.91 1.955 1.955 0 0 0 0-3.91m0-4.454a1.955 1.955 0 1 0 0 3.91 1.955 1.955 0 0 0 0-3.91m0-4.456a1.955 1.955 0 1 0 0 3.91 1.955 1.955 0 0 0 0-3.91m0-4.454a1.955 1.955 0 1 0-.002 3.91 1.955 1.955 0 0 0 .002-3.91m0-4.455a1.955 1.955 0 1 0 0 3.91 1.955 1.955 0 0 0 0-3.91m0-8.91a1.955 1.955 0 1 0 0 3.91 1.955 1.955 0 0 0 0-3.91m0-22.275a1.955 1.955 0 1 0 0 3.91 1.955 1.955 0 0 0 0-3.91m0-4.455a1.955 1.955 0 1 0 0 3.91 1.955 1.955 0 0 0 0-3.91m0-4.455a1.955 1.955 0 1 0 0 3.91 1.955 1.955 0 0 0 0-3.91m0-13.365a1.955 1.955 0 1 0 0 3.91 1.955 1.955 0 0 0 0-3.91m0-4.454a1.955 1.955 0 1 0 0 3.91 1.955 1.955 0 0 0 0-3.91m0-4.455a1.955 1.955 0 1 0 0 3.91 1.955 1.955 0 0 0 0-3.91m0-4.455a1.955 1.955 0 1 0 0 3.91 1.955 1.955 0 0 0 0-3.91m0-4.455a1.955 1.955 0 1 0 0 3.91 1.955 1.955 0 0 0 0-3.91m0-17.82a1.955 1.955 0 1 0 0 3.91 1.955 1.955 0 0 0 0-3.91m0-4.455a1.955 1.955 0 1 0 0 3.91 1.955 1.955 0 0 0 0-3.91m-4.42 115.828a1.955 1.955 0 1 0 0 3.911 1.955 1.955 0 0 0 0-3.91m0-4.456a1.955 1.955 0 1 0 0 3.911 1.955 1.955 0 0 0 0-3.91m0-4.455a1.955 1.955 0 1 0 0 3.91 1.955 1.955 0 0 0 0-3.91m0-4.456a1.955 1.955 0 1 0 0 3.911 1.955 1.955 0 0 0 0-3.91m0-4.455a1.955 1.955 0 1 0-.001 3.91 1.955 1.955 0 0 0 .002-3.91m0-4.455a1.955 1.955 0 1 0 0 3.91 1.955 1.955 0 0 0 0-3.91m0-8.91a1.955 1.955 0 1 0 0 3.91 1.955 1.955 0 0 0 0-3.91m0-17.82a1.955 1.955 0 1 0 0 3.91 1.955 1.955 0 0 0 0-3.91m0-4.455a1.955 1.955 0 1 0-.001 3.91 1.955 1.955 0 0 0 0-3.91m0-4.455a1.955 1.955 0 1 0 0 3.91 1.955 1.955 0 0 0 0-3.91m0-4.455a1.955 1.955 0 1 0 0 3.91 1.955 1.955 0 0 0 0-3.91m0-4.455a1.955 1.955 0 1 0 0 3.911 1.955 1.955 0 0 0 0-3.91m0-4.456a1.955 1.955 0 1 0 0 3.911 1.955 1.955 0 0 0 0-3.91m0-4.456a1.955 1.955 0 1 0 0 3.911 1.955 1.955 0 0 0 0-3.91m0-4.455a1.955 1.955 0 1 0 0 3.91 1.955 1.955 0 0 0 0-3.91m0-4.455a1.955 1.955 0 1 0 0 3.91 1.955 1.955 0 0 0 0-3.91m0-8.91a1.955 1.955 0 1 0 0 3.91 1.955 1.955 0 0 0 0-3.91m0-4.455a1.955 1.955 0 1 0 0 3.91 1.955 1.955 0 0 0 0-3.91m0-13.365a1.955 1.955 0 1 0 0 3.91 1.955 1.955 0 0 0 0-3.91m0-4.455a1.955 1.955 0 1 0 0 3.91 1.955 1.955 0 0 0 0-3.91m-4.419 106.919a1.955 1.955 0 1 0 0 3.909 1.955 1.955 0 0 0 0-3.91m0-4.455a1.955 1.955 0 1 0 0 3.91 1.955 1.955 0 0 0 0-3.91m0-4.454a1.954 1.954 0 1 0-.001 3.908 1.954 1.954 0 0 0 .001-3.908m0-4.455a1.955 1.955 0 1 0 0 3.91 1.955 1.955 0 0 0 0-3.91m0-4.455a1.955 1.955 0 1 0 0 3.91 1.955 1.955 0 0 0 0-3.91m0-8.91a1.955 1.955 0 1 0 0 3.91 1.955 1.955 0 0 0 0-3.91m0-4.455a1.955 1.955 0 1 0 0 3.91 1.955 1.955 0 0 0 0-3.91m0-4.455a1.955 1.955 0 1 0 0 3.91 1.955 1.955 0 0 0 0-3.91m0-4.455a1.955 1.955 0 1 0 0 3.91 1.955 1.955 0 0 0 0-3.91m0-4.455a1.955 1.955 0 1 0 0 3.91 1.955 1.955 0 0 0 0-3.91m0-4.455a1.955 1.955 0 1 0 0 3.91 1.955 1.955 0 0 0 0-3.91m0-4.455a1.955 1.955 0 1 0 0 3.91 1.955 1.955 0 0 0 0-3.91m0-4.455a1.955 1.955 0 1 0 0 3.91 1.955 1.955 0 0 0 0-3.91m0-4.455a1.955 1.955 0 1 0 0 3.91 1.955 1.955 0 0 0 0-3.91m0-13.364a1.955 1.955 0 1 0 0 3.91 1.955 1.955 0 0 0 0-3.91m0-4.455a1.955 1.955 0 1 0 0 3.91 1.955 1.955 0 0 0 0-3.91m0-4.455a1.955 1.955 0 1 0 0 3.91 1.955 1.955 0 0 0 0-3.91m0-4.455a1.955 1.955 0 1 0 0 3.91 1.955 1.955 0 0 0 0-3.91m0-4.455a1.955 1.955 0 1 0 0 3.91 1.955 1.955 0 0 0 0-3.91m0-4.455a1.955 1.955 0 1 0 0 3.91 1.955 1.955 0 0 0 0-3.91m0-4.455a1.955 1.955 0 1 0 0 3.91 1.955 1.955 0 0 0 0-3.91m0-4.455a1.955 1.955 0 1 0 0 3.91 1.955 1.955 0 0 0 0-3.91m-4.42 93.554a1.955 1.955 0 1 0 .002 3.91 1.955 1.955 0 0 0-.001-3.91m0-4.455a1.955 1.955 0 1 0 .001 3.91 1.955 1.955 0 0 0-.001-3.91m0-4.455a1.955 1.955 0 1 0 0 3.91 1.955 1.955 0 0 0 0-3.91m0-4.455a1.955 1.955 0 1 0 0 3.91 1.955 1.955 0 0 0 0-3.91m0-8.91a1.955 1.955 0 1 0 0 3.91 1.955 1.955 0 0 0 0-3.91m0-4.455a1.955 1.955 0 1 0 0 3.91 1.955 1.955 0 0 0 0-3.91m0-4.455a1.955 1.955 0 1 0 0 3.91 1.955 1.955 0 0 0 0-3.91m0-4.455a1.955 1.955 0 1 0 0 3.91 1.955 1.955 0 0 0 0-3.91m0-4.455a1.955 1.955 0 1 0 0 3.91 1.955 1.955 0 0 0 0-3.91m0-4.455a1.955 1.955 0 1 0 0 3.91 1.955 1.955 0 0 0 0-3.91m0-4.455a1.955 1.955 0 1 0 0 3.91 1.955 1.955 0 0 0 0-3.91m0-13.364a1.955 1.955 0 1 0 0 3.91 1.955 1.955 0 0 0 0-3.91m0-4.455a1.955 1.955 0 1 0 0 3.91 1.955 1.955 0 0 0 0-3.91m0-4.455a1.955 1.955 0 1 0 0 3.91 1.955 1.955 0 0 0 0-3.91m0-4.455a1.955 1.955 0 1 0 0 3.91 1.955 1.955 0 0 0 0-3.91m0-4.455a1.955 1.955 0 1 0 0 3.91 1.955 1.955 0 0 0 0-3.91m0-4.455a1.955 1.955 0 1 0 .001 3.91 1.955 1.955 0 0 0-.001-3.91m0-4.455a1.955 1.955 0 1 0 0 3.91 1.955 1.955 0 0 0 0-3.91m-4.42 80.189a1.955 1.955 0 1 0 .001 3.91 1.955 1.955 0 0 0 0-3.91m0-13.365a1.955 1.955 0 1 0 0 3.91 1.955 1.955 0 0 0 0-3.91m0-4.455a1.955 1.955 0 1 0 0 3.91 1.955 1.955 0 0 0 0-3.91m0-4.455a1.955 1.955 0 1 0 0 3.91 1.955 1.955 0 0 0 0-3.91m0-4.455a1.955 1.955 0 1 0 0 3.91 1.955 1.955 0 0 0 0-3.91m-1.955-2.5a1.955 1.955 0 1 0 3.91 0 1.955 1.955 0 0 0-3.91 0zm1.955-6.41a1.955 1.955 0 1 0 0 3.91 1.955 1.955 0 0 0 0-3.91m0-4.455a1.955 1.955 0 1 0 0 3.91 1.955 1.955 0 0 0 0-3.91m0-4.455a1.955 1.955 0 1 0 0 3.91 1.955 1.955 0 0 0 0-3.91m0-4.454a1.955 1.955 0 1 0 0 3.91 1.955 1.955 0 0 0 0-3.91m0-4.455a1.955 1.955 0 1 0 0 3.91 1.955 1.955 0 0 0 0-3.91m0-4.455a1.955 1.955 0 1 0 0 3.91 1.955 1.955 0 0 0 0-3.91m0-4.455a1.955 1.955 0 1 0 0 3.91 1.955 1.955 0 0 0 0-3.91m0-8.91a1.955 1.955 0 1 0 0 3.91 1.955 1.955 0 0 0 0-3.91m0-8.91a1.955 1.955 0 1 0 0 3.91 1.955 1.955 0 0 0 0-3.91m-4.42 80.189a1.955 1.955 0 1 0 0 3.91 1.955 1.955 0 0 0 0-3.91m0-4.455a1.955 1.955 0 1 0 0 3.91 1.955 1.955 0 0 0 0-3.91m0-4.455a1.955 1.955 0 1 0 0 3.91 1.955 1.955 0 0 0 0-3.91m0-4.455a1.955 1.955 0 1 0 0 3.91 1.955 1.955 0 0 0 0-3.91m0-4.455a1.955 1.955 0 1 0 0 3.91 1.955 1.955 0 0 0 0-3.91m0-4.455a1.955 1.955 0 1 0 0 3.91 1.955 1.955 0 0 0 0-3.91m0-4.455a1.955 1.955 0 1 0 0 3.91 1.955 1.955 0 0 0 0-3.91m0-4.455a1.955 1.955 0 1 0 0 3.91 1.955 1.955 0 0 0 0-3.91m0-4.455a1.955 1.955 0 1 0 0 3.91 1.955 1.955 0 0 0 0-3.91m-1.955-2.5a1.955 1.955 0 1 0 3.91 0 1.955 1.955 0 0 0-3.91 0zm1.956-6.41a1.955 1.955 0 1 0 0 3.91 1.955 1.955 0 0 0 0-3.91m0-4.454a1.955 1.955 0 1 0-.001 3.91 1.955 1.955 0 0 0 0-3.91m0-4.455a1.955 1.955 0 1 0 0 3.91 1.955 1.955 0 0 0 0-3.91m0-4.455a1.955 1.955 0 1 0 0 3.91 1.955 1.955 0 0 0 0-3.91m0-4.455a1.955 1.955 0 1 0 0 3.91 1.955 1.955 0 0 0 0-3.91m0-4.455a1.955 1.955 0 1 0 0 3.91 1.955 1.955 0 0 0 0-3.91m0-4.455a1.955 1.955 0 1 0 0 3.91 1.955 1.955 0 0 0 0-3.91m-4.419 71.279a1.955 1.955 0 1 0 0 3.91 1.955 1.955 0 0 0 0-3.91m0-4.455a1.955 1.955 0 1 0 0 3.91 1.955 1.955 0 0 0 0-3.91m0-4.455a1.955 1.955 0 1 0 0 3.91 1.955 1.955 0 0 0 0-3.91m0-4.455a1.955 1.955 0 1 0 0 3.91 1.955 1.955 0 0 0 0-3.91m0-4.455a1.955 1.955 0 1 0 0 3.91 1.955 1.955 0 0 0 0-3.91m0-4.455a1.955 1.955 0 1 0 0 3.91 1.955 1.955 0 0 0 0-3.91m0-4.455a1.955 1.955 0 1 0 0 3.91 1.955 1.955 0 0 0 0-3.91m0-4.455a1.955 1.955 0 1 0 0 3.91 1.955 1.955 0 0 0 0-3.91m0-4.455a1.955 1.955 0 1 0 0 3.911 1.955 1.955 0 0 0 0-3.91m0-4.456a1.955 1.955 0 1 0 0 3.911 1.955 1.955 0 0 0 0-3.91m0-4.456a1.955 1.955 0 1 0 0 3.91 1.955 1.955 0 0 0 0-3.91m0-4.454a1.955 1.955 0 1 0 0 3.91 1.955 1.955 0 0 0 0-3.91m0-4.455a1.955 1.955 0 1 0 0 3.91 1.955 1.955 0 0 0 0-3.91m0-4.455a1.955 1.955 0 1 0 0 3.91 1.955 1.955 0 0 0 0-3.91m0-4.455a1.955 1.955 0 1 0 0 3.91 1.955 1.955 0 0 0 0-3.91m0-13.365a1.956 1.956 0 1 0 0 3.91 1.956 1.956 0 0 0 0-3.91m-4.419 66.824a1.955 1.955 0 1 0 0 3.91 1.955 1.955 0 0 0 0-3.91m0-4.455a1.955 1.955 0 1 0 0 3.91 1.955 1.955 0 0 0 0-3.91m0-4.455a1.955 1.955 0 1 0 0 3.91 1.955 1.955 0 0 0 0-3.91m0-8.91a1.955 1.955 0 1 0 0 3.91 1.955 1.955 0 0 0 0-3.91m0-8.91a1.955 1.955 0 1 0 0 3.91 1.955 1.955 0 0 0 0-3.91m0-4.455a1.955 1.955 0 1 0 0 3.91 1.955 1.955 0 0 0 0-3.91m0-4.455a1.955 1.955 0 1 0 0 3.91 1.955 1.955 0 0 0 0-3.91m0-4.454a1.955 1.955 0 1 0 0 3.91 1.955 1.955 0 0 0 0-3.91m0-4.455a1.955 1.955 0 1 0 0 3.91 1.955 1.955 0 0 0 0-3.91m0-4.455a1.955 1.955 0 1 0 0 3.91 1.955 1.955 0 0 0 0-3.91m0-4.455a1.955 1.955 0 1 0 0 3.91 1.955 1.955 0 0 0 0-3.91m0-4.455a1.955 1.955 0 1 0 0 3.91 1.955 1.955 0 0 0 0-3.91m0-8.91a1.955 1.955 0 1 0 0 3.91 1.955 1.955 0 0 0 0-3.91m-4.419 66.824a1.955 1.955 0 1 0 0 3.91 1.955 1.955 0 0 0 0-3.91m0-4.455a1.955 1.955 0 1 0 0 3.91 1.955 1.955 0 0 0 0-3.91m0-4.455a1.955 1.955 0 1 0 0 3.91 1.955 1.955 0 0 0 0-3.91m0-4.455a1.955 1.955 0 1 0 0 3.91 1.955 1.955 0 0 0 0-3.91m0-4.455a1.955 1.955 0 1 0 0 3.91 1.955 1.955 0 0 0 0-3.91m0-4.455a1.955 1.955 0 1 0 0 3.91 1.955 1.955 0 0 0 0-3.91m0-4.455a1.955 1.955 0 1 0 0 3.911 1.955 1.955 0 0 0 0-3.91m0-4.456a1.955 1.955 0 1 0 0 3.911 1.955 1.955 0 0 0 0-3.91m0-4.456a1.955 1.955 0 1 0 0 3.91 1.955 1.955 0 0 0 0-3.91m0-4.454a1.955 1.955 0 1 0 0 3.91 1.955 1.955 0 0 0 0-3.91m0-4.455a1.955 1.955 0 1 0 0 3.91 1.955 1.955 0 0 0 0-3.91m0-4.455a1.955 1.955 0 1 0 0 3.91 1.955 1.955 0 0 0 0-3.91m0-4.455a1.955 1.955 0 1 0 0 3.91 1.955 1.955 0 0 0 0-3.91m0-4.455a1.955 1.955 0 1 0 0 3.91 1.955 1.955 0 0 0 0-3.91m0-4.455a1.955 1.955 0 1 0 0 3.91 1.955 1.955 0 0 0 0-3.91m0-4.455a1.956 1.956 0 1 0 0 3.91 1.956 1.956 0 0 0 0-3.91m-4.42 57.914a1.955 1.955 0 1 0 0 3.91 1.955 1.955 0 0 0 0-3.91m0-8.91a1.955 1.955 0 1 0 0 3.91 1.955 1.955 0 0 0 0-3.91m0-8.91a1.955 1.955 0 1 0 0 3.91 1.955 1.955 0 0 0 0-3.91m0-4.455a1.955 1.955 0 1 0 0 3.91 1.955 1.955 0 0 0 0-3.91m0-4.455a1.955 1.955 0 1 0 0 3.91 1.955 1.955 0 0 0 0-3.91m0-4.454a1.955 1.955 0 1 0 0 3.91 1.955 1.955 0 0 0 0-3.91m0-4.455a1.955 1.955 0 1 0 0 3.91 1.955 1.955 0 0 0 0-3.91m0-4.455a1.955 1.955 0 1 0 0 3.91 1.955 1.955 0 0 0 0-3.91m0-4.455a1.955 1.955 0 1 0 0 3.91 1.955 1.955 0 0 0 0-3.91m0-4.455a1.955 1.955 0 1 0 0 3.91 1.955 1.955 0 0 0 0-3.91m0-4.455a1.955 1.955 0 1 0 0 3.91 1.955 1.955 0 0 0 0-3.91M37.31 62.369a1.955 1.955 0 1 0 0 3.91 1.955 1.955 0 0 0 0-3.91m0-4.455a1.955 1.955 0 1 0 0 3.911 1.955 1.955 0 0 0 0-3.91m0-4.456a1.956 1.956 0 1 0 0 3.911 1.956 1.956 0 0 0 0-3.91m0-4.456a1.955 1.955 0 1 0 0 3.911 1.955 1.955 0 0 0 0-3.91m0-4.456a1.956 1.956 0 1 0 0 3.911 1.956 1.956 0 0 0 0-3.91m0-4.455a1.955 1.955 0 1 0 0 3.91 1.955 1.955 0 0 0 0-3.91m0-4.455a1.955 1.955 0 1 0 0 3.91 1.955 1.955 0 0 0 0-3.91m0-4.455a1.955 1.955 0 1 0 0 3.91 1.955 1.955 0 0 0 0-3.91m0-4.455a1.955 1.955 0 1 0 0 3.91 1.955 1.955 0 0 0 0-3.91m0-4.455a1.955 1.955 0 1 0 0 3.91 1.955 1.955 0 0 0 0-3.91M32.89 53.46a1.955 1.955 0 1 0 0 3.91 1.955 1.955 0 0 0 0-3.91m0-4.455a1.955 1.955 0 1 0 0 3.91 1.955 1.955 0 0 0 0-3.91m0-4.455a1.955 1.955 0 1 0 0 3.91 1.955 1.955 0 0 0 0-3.91m0-4.454a1.955 1.955 0 1 0-.001 3.909 1.955 1.955 0 0 0 .001-3.91m0-4.454a1.955 1.955 0 1 0 0 3.91 1.955 1.955 0 0 0 0-3.91m0-4.455a1.955 1.955 0 1 0 0 3.91 1.955 1.955 0 0 0 0-3.91m0-4.455a1.955 1.955 0 1 0 0 3.91 1.955 1.955 0 0 0 0-3.91m-4.419 22.274a1.955 1.955 0 1 0 0 3.911 1.955 1.955 0 0 0 0-3.91m0-4.456a1.955 1.955 0 1 0 0 3.91 1.955 1.955 0 0 0 0-3.91m0-4.454a1.955 1.955 0 1 0 0 3.91 1.955 1.955 0 0 0 0-3.91m0-4.455a1.955 1.955 0 1 0 0 3.91 1.955 1.955 0 0 0 0-3.91m0-4.455a1.955 1.955 0 1 0 0 3.91 1.955 1.955 0 0 0 0-3.91m0-4.455a1.955 1.955 0 1 0 0 3.91 1.955 1.955 0 0 0 0-3.91m-4.42 13.365a1.955 1.955 0 1 0 0 3.91 1.955 1.955 0 0 0 0-3.91m0-4.455a1.955 1.955 0 1 0 0 3.91 1.955 1.955 0 0 0 0-3.91m0-4.455a1.955 1.955 0 1 0 0 3.91 1.955 1.955 0 0 0 0-3.91m0-4.455a1.955 1.955 0 1 0 0 3.91 1.955 1.955 0 0 0 0-3.91m-4.418 13.365a1.955 1.955 0 1 0-.002 3.91 1.955 1.955 0 0 0 .002-3.91m0-4.455a1.955 1.955 0 1 0-.001 3.91 1.955 1.955 0 0 0 0-3.91m0-4.455a1.955 1.955 0 1 0 0 3.91 1.955 1.955 0 0 0 0-3.91m0-4.455a1.955 1.955 0 1 0 0 3.91 1.955 1.955 0 0 0 0-3.91m-4.419 17.82a1.955 1.955 0 1 0 0 3.91 1.955 1.955 0 0 0 0-3.91m0-4.455a1.955 1.955 0 1 0 0 3.91 1.955 1.955 0 0 0 0-3.91m0-4.455a1.955 1.955 0 1 0 0 3.91 1.955 1.955 0 0 0 0-3.91m0-4.455a1.955 1.955 0 1 0 0 3.91 1.955 1.955 0 0 0 0-3.91m0-4.455a1.955 1.955 0 1 0 0 3.91 1.955 1.955 0 0 0 0-3.91m-4.42 57.914a1.955 1.955 0 1 0 .001 3.91 1.955 1.955 0 0 0 0-3.91m0-40.095a1.955 1.955 0 1 0 0 3.91 1.955 1.955 0 0 0 0-3.91m0-4.454a1.955 1.955 0 1 0 0 3.91 1.955 1.955 0 0 0 0-3.91m0-4.455a1.955 1.955 0 1 0 0 3.91 1.955 1.955 0 0 0 0-3.91m0-4.455a1.955 1.955 0 1 0 0 3.91 1.955 1.955 0 0 0 0-3.91m0-4.455a1.955 1.955 0 1 0 0 3.91 1.955 1.955 0 0 0 0-3.91m-4.42 57.914a1.955 1.955 0 1 0 0 3.91 1.955 1.955 0 0 0 0-3.91m0-35.64a1.955 1.955 0 1 0 0 3.911 1.955 1.955 0 0 0 0-3.91m0-4.456a1.955 1.955 0 1 0 0 3.91 1.955 1.955 0 0 0 0-3.91m0-4.454a1.955 1.955 0 1 0 0 3.91 1.955 1.955 0 0 0 0-3.91m0-4.455a1.955 1.955 0 1 0 0 3.91 1.955 1.955 0 0 0 0-3.91m0-4.455a1.955 1.955 0 1 0 0 3.91 1.955 1.955 0 0 0 0-3.91m0-4.455a1.955 1.955 0 1 0 0 3.91 1.955 1.955 0 0 0 0-3.91M1.955 53.46a1.955 1.955 0 1 0 0 3.91 1.955 1.955 0 0 0 0-3.91m0-13.365a1.955 1.955 0 1 0-.001 3.909 1.955 1.955 0 0 0 .001-3.91m0-8.909a1.955 1.955 0 1 0 0 3.91 1.955 1.955 0 0 0 0-3.91" opacity=".4"/>
</svg>
